<svg width="30" height="30" viewBox="0 0 30 30" fill="none" xmlns="http://www.w3.org/2000/svg">
<path d="M27.3632 14.1798H2.63671C1.18283 14.1798 0 15.3626 0 16.8165V27.3634C0 28.8173 1.18283 30.0001 2.63671 30.0001H27.3632C28.8171 30.0001 29.9999 28.8173 29.9999 27.3634V16.8165C29.9999 15.3626 28.8171 14.1798 27.3632 14.1798V14.1798ZM28.2421 27.3634C28.2421 27.848 27.8478 28.2423 27.3632 28.2423H2.63671C2.15208 28.2423 1.75781 27.848 1.75781 27.3634V16.8165C1.75781 16.3319 2.15208 15.9376 2.63671 15.9376H27.3632C27.8478 15.9376 28.2421 16.3319 28.2421 16.8165V27.3634Z" fill="black"/>
<path d="M7.96876 24.7267H5.33203V18.5743C5.33203 18.089 4.93852 17.6954 4.45313 17.6954C3.96773 17.6954 3.57422 18.089 3.57422 18.5743V25.6056C3.57422 26.091 3.96773 26.4845 4.45313 26.4845H7.96876C8.45415 26.4845 8.84766 26.091 8.84766 25.6056C8.84766 25.1202 8.45415 24.7267 7.96876 24.7267Z" fill="black"/>
<path d="M11.4844 17.6954C10.999 17.6954 10.6055 18.089 10.6055 18.5743V25.6056C10.6055 26.091 10.999 26.4845 11.4844 26.4845C11.9698 26.4845 12.3633 26.091 12.3633 25.6056V18.5743C12.3633 18.089 11.9698 17.6954 11.4844 17.6954Z" fill="black"/>
<path d="M25.5469 19.4532C26.0323 19.4532 26.4258 19.0597 26.4258 18.5743C26.4258 18.089 26.0323 17.6954 25.5469 17.6954H22.0312C21.5459 17.6954 21.1523 18.089 21.1523 18.5743V25.6056C21.1523 26.091 21.5459 26.4845 22.0312 26.4845H25.5469C26.0323 26.4845 26.4258 26.091 26.4258 25.6056C26.4258 25.1202 26.0323 24.7267 25.5469 24.7267H22.9102V22.9689H25.5469C26.0323 22.9689 26.4258 22.5754 26.4258 22.09C26.4258 21.6046 26.0323 21.2111 25.5469 21.2111H22.9102V19.4532H25.5469Z" fill="black"/>
<path d="M18.7287 17.7217C18.2578 17.6041 17.7806 17.8902 17.6629 18.3611L16.7578 21.9817L15.8526 18.3611C15.7349 17.8902 15.2576 17.6039 14.7868 17.7217C14.3159 17.8394 14.0296 18.3166 14.1473 18.7875L15.9051 25.8187C16.0029 26.21 16.3545 26.4845 16.7578 26.4845C17.1611 26.4845 17.5126 26.21 17.6104 25.8187L19.3682 18.7875C19.4859 18.3166 19.1996 17.8394 18.7287 17.7217V17.7217Z" fill="black"/>
<path d="M8.4957 12.1288C8.88388 11.8373 8.96222 11.2864 8.67078 10.8982C6.57259 8.10399 6.57259 4.201 8.67078 1.40684C8.96228 1.01866 8.88388 0.467759 8.4957 0.176255C8.10757 -0.115191 7.55662 -0.0368508 7.26517 0.351333C4.70035 3.767 4.70035 8.53805 7.26517 11.9537C7.55691 12.3424 8.10798 12.4199 8.4957 12.1288Z" fill="black"/>
<path d="M21.5043 12.1287C21.8917 12.4196 22.4428 12.3426 22.7348 11.9536C25.2996 8.53795 25.2996 3.7669 22.7348 0.351236C22.4434 -0.0369477 21.8924 -0.115346 21.5043 0.176158C21.1161 0.467603 21.0378 1.01856 21.3292 1.40674C23.4274 4.20096 23.4274 8.10395 21.3292 10.8981C21.0378 11.2863 21.1162 11.8372 21.5043 12.1287Z" fill="black"/>
<path d="M11.6554 10.3228C12.017 9.99895 12.0477 9.44331 11.7238 9.08173C10.2283 7.41175 10.2283 4.89309 11.7238 3.22317C12.0476 2.86159 12.017 2.30595 11.6554 1.9821C11.2939 1.65831 10.7383 1.68889 10.4144 2.05048C9.4055 3.17706 8.84985 4.63382 8.84985 6.15245C8.84985 7.67108 9.40544 9.12784 10.4144 10.2544C10.7372 10.6149 11.2927 10.6476 11.6554 10.3228Z" fill="black"/>
<path d="M18.3443 10.3228C18.7076 10.6481 19.263 10.6144 19.5854 10.2544C20.5943 9.12784 21.1499 7.67108 21.1499 6.15245C21.1499 4.63382 20.5944 3.17706 19.5854 2.05048C19.2616 1.68889 18.706 1.65831 18.3443 1.9821C17.9828 2.30595 17.9521 2.86159 18.276 3.22317C19.7715 4.89315 19.7715 7.4118 18.276 9.08173C17.9521 9.44337 17.9827 9.99895 18.3443 10.3228Z" fill="black"/>
<path d="M15 8.78907C16.4539 8.78907 17.6367 7.60624 17.6367 6.15235C17.6367 4.69846 16.4539 3.51562 15 3.51562C13.5461 3.51562 12.3633 4.69846 12.3633 6.15235C12.3633 7.60624 13.5461 8.78907 15 8.78907ZM15 5.27344C15.4846 5.27344 15.8789 5.66772 15.8789 6.15235C15.8789 6.63698 15.4846 7.03125 15 7.03125C14.5154 7.03125 14.1211 6.63698 14.1211 6.15235C14.1211 5.66772 14.5154 5.27344 15 5.27344Z" fill="black"/>
</svg>
