<svg width="1812" height="320" viewBox="0 0 1812 320" fill="none" xmlns="http://www.w3.org/2000/svg">
<path d="M814.259 0.199514C829.068 -1.0708 842.366 7.13737 852.441 17.0067C861.205 6.64879 874.403 -0.191352 888.406 0.00408099C902.51 0.883528 915.909 8.70083 923.162 20.4268C930.517 31.7619 931.222 47.0056 924.774 58.8293C916.614 73.8776 906.842 88.0465 898.883 103.193C904.525 116.482 913.693 128.012 920.14 141.009C936.158 115.309 950.968 88.8282 966.885 63.1288C972.426 54.3344 984.314 54.8229 993.683 55.2138C973.736 90.4894 952.378 124.983 931.726 159.966C952.277 194.85 973.635 229.344 993.784 264.424C984.314 264.815 972.426 265.695 966.885 256.607C950.867 230.908 936.158 204.524 920.14 178.923C913.189 191.333 905.633 203.449 898.38 215.762C906.943 231.983 917.42 247.226 925.983 263.447C935.252 283.186 923.767 308.299 903.316 316.312C885.484 322.859 862.918 317.973 852.239 301.948C843.575 312.989 829.773 320.611 815.065 318.95C787.461 319.634 766.406 287.974 777.89 263.74C786.554 247.617 796.427 232.276 805.897 216.543C798.643 203.938 791.289 191.333 783.532 178.923C768.521 204.622 753.309 230.224 737.895 255.63C732.556 264.815 720.265 266.183 710.896 262.959C730.642 229.931 750.287 196.902 769.932 163.777C772.249 160.747 770.939 156.937 769.126 154.103C749.279 121.172 729.634 88.0465 709.989 54.9207C719.157 54.8229 730.944 53.9435 736.787 62.4448C753.007 88.1442 767.816 114.723 783.935 140.52C790.181 129.967 796.326 119.511 802.572 108.958C804.285 106.124 805.796 102.606 803.58 99.577C796.427 87.3625 789.174 75.1479 781.92 63.0311C776.077 54.1389 772.954 43.2924 775.775 32.8368C779.2 15.4433 795.722 1.66526 814.259 0.199514ZM865.638 48.5691C871.783 60.1973 878.835 71.5324 885.988 82.6721C890.421 74.3662 894.551 65.8649 901.1 58.927C905.734 53.9435 909.864 47.6896 909.26 40.6541C909.562 30.3939 900.697 21.5017 890.622 19.6451C874.806 16.3227 858.687 34.0094 865.638 48.5691ZM815.468 19.8405C802.17 19.9382 791.088 34.3025 795.319 46.7125C796.931 52.6732 801.263 57.2659 805.293 61.7608C810.531 67.4283 813.352 74.6594 817.684 81.0109C818.188 80.9132 819.195 80.62 819.699 80.5223C825.743 70.2621 831.99 60.0996 837.833 49.7417C845.086 35.6705 831.486 17.2999 815.468 19.8405ZM829.773 101.727C837.53 114.137 844.683 126.742 852.239 139.348C858.888 126.644 866.746 114.528 873.899 102.215C867.25 89.3168 859.593 77.0045 851.836 64.6923C844.381 76.9068 837.128 89.3168 829.773 101.727ZM795.52 159.868C801.464 172.376 809.625 183.906 816.677 195.925C817.08 195.828 817.986 195.73 818.389 195.73C823.93 185.274 830.579 175.405 836.422 165.145C837.531 162.702 839.646 159.673 837.833 157.034C830.881 145.504 823.729 134.071 817.281 122.247C810.632 135.146 801.767 146.872 795.52 159.868ZM865.033 159.868C871.28 172.864 879.843 184.59 886.693 197.293C894.148 184.883 901.301 172.278 909.058 160.063C901.603 148.044 894.148 135.927 887.499 123.518C878.735 134.657 872.086 147.458 865.033 159.868ZM829.673 218.986C837.833 230.908 844.683 243.611 852.138 256.021C858.787 242.927 867.552 230.908 873.899 217.716C866.444 205.795 859.493 193.482 852.138 181.463C844.18 193.678 836.926 206.381 829.673 218.986ZM805.393 258.073C799.852 264.62 793.103 271.949 794.513 281.036C795.923 293.837 810.431 303.706 823.326 299.505C836.221 296.671 843.474 281.427 837.732 269.994C831.889 258.464 823.426 248.399 818.691 236.38C814.359 243.611 811.136 251.624 805.393 258.073ZM884.678 239.214C879.339 246.933 875.108 255.239 870.071 263.154C866.343 269.115 862.213 276.053 864.631 283.186C867.048 294.423 879.641 302.729 891.328 299.798C901.402 298.137 909.562 288.854 909.26 278.886C909.461 271.46 905.432 264.718 900.092 259.636C894.048 253.773 891.227 245.761 886.593 239.018C886.089 239.116 885.081 239.214 884.678 239.214Z" fill="black"/>
<path d="M1068.23 120.781C1079.71 87.167 1109.94 58.8293 1146.71 53.6503C1177.64 49.644 1209.17 54.5298 1238.79 63.7151C1237.38 67.7215 1236.07 71.7279 1234.76 75.7342C1210.08 68.7964 1184.29 64.2037 1158.5 65.5717C1136.23 66.842 1114.87 77.6886 1100.97 94.5935C1080.92 117.557 1074.17 149.901 1080.52 179.02C1085.46 202.375 1101.07 222.797 1121.12 236.282C1138.65 248.301 1160.61 253.48 1181.87 252.21C1200.4 251.721 1219.04 248.79 1236.27 241.852C1237.88 245.272 1239.39 248.79 1241 252.21C1225.49 260.418 1207.56 263.154 1190.23 264.913C1165.45 267.258 1139.45 263.447 1117.9 251.037C1093.92 237.162 1073.97 215.273 1066.52 188.89C1060.27 166.61 1061.08 142.67 1068.23 120.781Z" fill="black"/>
<path d="M1686.49 56.191C1701.1 54.7252 1715.81 54.8229 1730.52 54.2366C1748.15 53.9435 1766.68 57.8522 1780.39 69.1872C1788.65 75.832 1793.18 86.0922 1793.68 96.3524C1795.3 118.534 1781.8 139.738 1762.86 151.367C1779.78 156.741 1795.09 167.49 1804.36 182.245C1813.73 197.293 1813.53 216.543 1807.08 232.569C1801.14 246.542 1787.44 256.216 1772.73 260.223C1757.82 264.913 1742.1 263.252 1726.79 263.545C1713.39 263.252 1699.99 262.372 1686.59 261.493C1686.59 193.092 1686.59 124.592 1686.49 56.191ZM1700.9 67.6238C1700.9 93.714 1700.9 119.804 1700.9 145.895C1716.11 145.601 1731.32 146.09 1746.54 147.263C1765.47 137.882 1780.28 117.948 1778.97 96.7432C1778.47 85.9944 1770.81 76.9068 1761.04 72.5096C1742.51 62.738 1720.85 67.1352 1700.9 67.6238ZM1700.9 157.914C1700.9 188.401 1700.9 218.986 1700.9 249.474C1715.41 250.744 1730.01 250.353 1744.52 251.037C1759.83 251.33 1776.15 246.738 1786.43 235.11C1798.32 222.504 1799.02 202.57 1790.36 188.108C1783 175.893 1770.31 167.49 1756.61 163.19C1738.78 157.034 1719.54 157.914 1700.9 157.914Z" fill="black"/>
<path d="M1296.01 262.079C1296.01 193.287 1296.01 124.397 1296.01 55.6046C1300.95 55.6046 1305.88 55.6046 1310.82 55.6046C1310.82 119.902 1310.82 184.297 1310.82 248.594C1343.36 248.594 1375.8 248.594 1408.34 248.594C1408.34 253.089 1408.34 257.584 1408.34 262.079C1370.86 262.079 1333.49 262.079 1296.01 262.079Z" fill="black"/>
<path d="M1444.51 182.929C1444.51 140.52 1444.51 98.1112 1444.51 55.7023C1449.24 55.7023 1454.08 55.7023 1458.81 55.7023C1458.81 85.3104 1458.81 114.918 1458.81 144.526C1459.11 163.874 1457.7 183.32 1461.33 202.472C1464.45 219.084 1473.42 235.696 1489.03 244.197C1506.77 253.969 1528.53 254.75 1548.17 250.842C1563.69 247.813 1577.79 238.334 1585.45 224.849C1594.01 209.801 1596.23 192.212 1595.92 175.307C1595.92 135.439 1595.92 95.5706 1595.92 55.8001C1600.86 55.8001 1605.8 55.8001 1610.73 55.8001C1610.73 86.0921 1610.73 116.286 1610.73 146.579C1610.33 167.001 1612.45 187.815 1607.41 207.944C1603.08 226.12 1592.9 244.002 1576.08 254.066C1560.26 263.74 1541.02 266.183 1522.68 265.597C1503.84 264.913 1484.3 260.125 1470.2 247.422C1452.26 230.81 1444.91 206.283 1444.51 182.929Z" fill="black"/>
<path d="M0.0146484 55.6044C52.8042 55.6044 105.594 55.6044 158.383 55.6044C158.383 59.7085 158.383 63.9103 158.383 68.1121C134.507 68.1121 110.53 68.1121 86.654 68.1121C86.654 132.8 86.654 197.391 86.654 262.079C81.7176 262.079 76.7812 262.079 71.8448 262.079C71.8448 197.391 71.8448 132.8 71.8448 68.1121C47.8678 68.1121 23.9916 68.1121 0.115392 68.1121C0.0146488 63.9103 0.0146484 59.8062 0.0146484 55.6044Z" fill="black"/>
<path d="M224.068 55.6047C228.803 55.6047 233.639 55.6047 238.373 55.6047C238.373 85.7014 238.373 115.798 238.373 145.895C286.932 145.895 335.389 145.895 383.948 145.895C383.948 115.798 383.948 85.7014 383.948 55.6047C388.884 55.6047 393.821 55.6047 398.757 55.6047C398.757 124.397 398.757 193.287 398.757 262.079C393.821 262.079 388.884 262.079 383.948 262.079C383.948 227.683 383.948 193.287 383.948 158.891C335.389 158.891 286.932 158.891 238.474 158.891C238.373 193.287 238.474 227.683 238.474 262.079C233.638 262.079 228.904 262.079 224.169 262.079C224.068 193.287 224.068 124.495 224.068 55.6047Z" fill="black"/>
<path d="M496.781 262.079C496.781 193.287 496.781 124.397 496.781 55.6047C529.724 55.6047 592.991 55.6047 625.934 55.6047C625.934 59.7088 625.934 63.9106 625.934 68.1124C597.927 68.1124 539.597 68.1124 511.59 68.1124C511.59 93.2255 511.59 118.339 511.59 143.452C536.977 143.452 562.365 143.452 587.752 143.452C587.752 147.458 587.752 151.464 587.752 155.471C562.365 155.471 536.877 155.471 511.489 155.471C511.489 186.838 511.489 218.205 511.489 249.572C540.705 249.572 600.144 249.572 629.258 249.572C629.258 253.676 629.258 257.877 629.258 262.079C595.207 262.079 530.832 262.079 496.781 262.079Z" fill="black"/>
</svg>
