<svg width="39" height="40" viewBox="0 0 39 40" fill="none" xmlns="http://www.w3.org/2000/svg">
<path d="M19.375 0.625C8.67188 0.625 0 9.29688 0 20C0 30.7031 8.67188 39.375 19.375 39.375C30.0781 39.375 38.75 30.7031 38.75 20C38.75 9.29688 30.0781 0.625 19.375 0.625ZM19.375 8.125C23.1719 8.125 26.25 11.2031 26.25 15C26.25 18.7969 23.1719 21.875 19.375 21.875C15.5781 21.875 12.5 18.7969 12.5 15C12.5 11.2031 15.5781 8.125 19.375 8.125ZM19.375 35C14.7891 35 10.6797 32.9219 7.92969 29.6719C9.39844 26.9062 12.2734 25 15.625 25C15.8125 25 16 25.0312 16.1797 25.0859C17.1953 25.4141 18.2578 25.625 19.375 25.625C20.4922 25.625 21.5625 25.4141 22.5703 25.0859C22.75 25.0312 22.9375 25 23.125 25C26.4766 25 29.3516 26.9062 30.8203 29.6719C28.0703 32.9219 23.9609 35 19.375 35Z" fill="black"/>
</svg>
