<svg width="40" height="38" viewBox="0 0 40 38" fill="none" xmlns="http://www.w3.org/2000/svg">
<path d="M39.8459 12.5966L33.4612 1.15252C33.2466 0.768054 32.8407 0.529663 32.4004 0.529663H7.60025C7.15991 0.529663 6.75406 0.767892 6.53948 1.15252L0.15393 12.5966C-0.08851 13.0311 -0.0413824 13.5696 0.272802 13.9555L19.0594 37.0225C19.0654 37.0299 19.0723 37.0362 19.0785 37.0435C19.0979 37.0664 19.118 37.0885 19.1392 37.1099C19.1417 37.1123 19.1438 37.1153 19.1462 37.1177C19.1517 37.123 19.1574 37.1281 19.163 37.1332C19.165 37.1352 19.1671 37.1366 19.169 37.1386C19.1906 37.1588 19.2128 37.1783 19.2358 37.197C19.2463 37.2056 19.257 37.2142 19.2678 37.2225C19.2913 37.2403 19.3156 37.257 19.3404 37.2732C19.352 37.2808 19.3635 37.2884 19.3754 37.2957C19.3962 37.3081 19.4179 37.3196 19.4396 37.3311C19.4486 37.3357 19.4571 37.3407 19.4662 37.3451C19.4745 37.3491 19.4826 37.3532 19.4908 37.357C19.515 37.3682 19.5399 37.3778 19.5652 37.3875C19.5809 37.3937 19.5963 37.4003 19.6123 37.4058C19.6154 37.4068 19.618 37.4082 19.621 37.4092C19.6222 37.4095 19.6233 37.4097 19.6244 37.41C19.6351 37.4136 19.6466 37.4155 19.6576 37.4188C19.6986 37.4309 19.7402 37.4408 19.7823 37.4486C19.7998 37.4518 19.8172 37.455 19.8348 37.4575C19.8848 37.4644 19.9355 37.4688 19.9867 37.4694C19.9914 37.4694 19.9961 37.4706 20.001 37.4706H20.0011H20.0013C20.0062 37.4706 20.0108 37.4694 20.0155 37.4694C20.0669 37.4688 20.1176 37.4644 20.1676 37.4575C20.1851 37.455 20.2023 37.4518 20.2196 37.4487C20.2622 37.4409 20.3041 37.4309 20.3453 37.4186C20.3558 37.4155 20.3668 37.4136 20.3773 37.4102C20.3786 37.4097 20.3799 37.4097 20.3811 37.4092C20.3843 37.4082 20.3869 37.4068 20.39 37.4056C20.4058 37.4003 20.4209 37.3937 20.4365 37.3878C20.4617 37.3781 20.487 37.3684 20.5113 37.3572C20.5197 37.3533 20.5281 37.3491 20.5364 37.3451C20.545 37.3409 20.5532 37.336 20.5615 37.3318C20.5835 37.3203 20.6054 37.3086 20.6264 37.296C20.6384 37.2887 20.6501 37.2809 20.6621 37.2732C20.6867 37.2571 20.711 37.2404 20.734 37.2228C20.745 37.2145 20.7557 37.2059 20.7662 37.1972C20.7895 37.1784 20.8117 37.1588 20.8332 37.1386C20.8353 37.1365 20.8376 37.1349 20.8397 37.1329C20.8446 37.1282 20.8498 37.1238 20.8546 37.119C20.8574 37.1162 20.8598 37.1132 20.8625 37.1104C20.8842 37.0885 20.9048 37.0657 20.9246 37.0424C20.9304 37.0356 20.9369 37.0296 20.9426 37.0226L39.727 13.9555C40.0412 13.5696 40.0883 13.0311 39.8459 12.5966ZM22.3977 2.95908L25.8378 11.9739H14.1636L17.6049 2.95908H22.3977ZM25.9225 14.4032L20.0011 32.3743L14.0791 14.4032H25.9225ZM11.5214 14.4032L16.7887 30.3875L3.77045 14.4032H11.5214ZM28.4802 14.4032H36.2297L23.2137 30.387L28.4802 14.4032ZM36.7165 11.9739H28.4379L24.9978 2.95908H31.6873L36.7165 11.9739ZM8.31332 2.95908H15.0046L11.5635 11.9739H3.2833L8.31332 2.95908Z" fill="black"/>
</svg>
