<svg width="30" height="29" viewBox="0 0 30 29" fill="none" xmlns="http://www.w3.org/2000/svg">
<path d="M8.02734 21.0938H24.5278L27.038 11.4111C28.8125 10.3306 30 8.37756 30 6.15234C30 2.75994 27.2401 0 23.8477 0C20.4553 0 17.6953 2.75994 17.6953 6.15234C17.6953 7.09541 17.9089 7.98949 18.2897 8.78906H8.14641L6.97453 3.51562H0V5.27344H5.56453L8.68951 19.3359H8.02734C6.57346 19.3359 5.39062 20.5188 5.39062 21.9727C5.39062 23.4265 6.57346 24.6094 8.02734 24.6094H9.05742C8.95986 24.8845 8.90625 25.1802 8.90625 25.4883C8.90625 26.9422 10.0891 28.125 11.543 28.125C12.9969 28.125 14.1797 26.9422 14.1797 25.4883C14.1797 25.1802 14.1261 24.8845 14.0285 24.6094H17.8465C17.7489 24.8845 17.6953 25.1802 17.6953 25.4883C17.6953 26.9422 18.8781 28.125 20.332 28.125C21.7859 28.125 22.9688 26.9422 22.9688 25.4883C22.9688 25.1802 22.9151 24.8845 22.8176 24.6094H24.7266V22.8516H8.02734C7.54272 22.8516 7.14844 22.4573 7.14844 21.9727C7.14844 21.488 7.54272 21.0938 8.02734 21.0938ZM10.4902 19.3359L9.70893 15.8203H13.371L13.6639 19.3359H10.4902ZM18.4979 15.8203L18.205 19.3359H15.4279L15.1349 15.8203H18.4979ZM14.9884 14.0625L14.6954 10.5469H18.9374L18.6444 14.0625H14.9884ZM19.9689 19.3359L20.2618 15.8203H24.079L23.1675 19.3359H19.9689ZM24.5347 14.0625H20.4083L20.6307 11.3945C21.5673 11.9714 22.6692 12.3047 23.8477 12.3047C24.2484 12.3047 24.6401 12.2657 25.0196 12.1922L24.5347 14.0625ZM23.8477 1.75781C26.2708 1.75781 28.2422 3.7292 28.2422 6.15234C28.2422 8.57549 26.2708 10.5469 23.8477 10.5469C21.4245 10.5469 19.4531 8.57549 19.4531 6.15234C19.4531 3.7292 21.4245 1.75781 23.8477 1.75781ZM12.9315 10.5469L13.2245 14.0625H9.31828L8.53705 10.5469H12.9315ZM12.4219 25.4883C12.4219 25.9729 12.0276 26.3672 11.543 26.3672C11.0583 26.3672 10.6641 25.9729 10.6641 25.4883C10.6641 25.0037 11.0583 24.6094 11.543 24.6094C12.0276 24.6094 12.4219 25.0037 12.4219 25.4883ZM21.2109 25.4883C21.2109 25.9729 20.8167 26.3672 20.332 26.3672C19.8474 26.3672 19.4531 25.9729 19.4531 25.4883C19.4531 25.0037 19.8474 24.6094 20.332 24.6094C20.8167 24.6094 21.2109 25.0037 21.2109 25.4883Z" fill="white"/>
<path d="M22.9688 8.78906H24.7266V7.03125H26.4844V5.27344H24.7266V3.51562H22.9688V5.27344H21.2109V7.03125H22.9688V8.78906Z" fill="white"/>
</svg>
