<svg width="40" height="40" viewBox="0 0 40 40" fill="none" xmlns="http://www.w3.org/2000/svg">
<g clip-path="url(#clip0)">
<path d="M20 40C31.028 40 40 31.0279 40 19.9999C40 8.972 31.028 -1.97645e-06 20 -2.94055e-06C8.972 -3.90465e-06 1.52046e-06 8.97199 5.56373e-07 19.9999C-4.07725e-07 31.0279 8.972 40 20 40ZM20 3.63636C29.023 3.63636 36.3636 10.9771 36.3636 19.9999C36.3636 29.0228 29.023 36.3636 20 36.3636C10.977 36.3636 3.63636 29.0228 3.63636 19.9999C3.63637 10.9771 10.9771 3.63636 20 3.63636Z" fill="black"/>
<path d="M17.5024 28.5581C18.2123 29.2681 19.3636 29.2681 20.0736 28.5581C20.7837 27.8482 20.7837 26.6969 20.0736 25.9868L15.9046 21.8178L28.4852 21.817C29.4893 21.817 30.3033 21.0028 30.3032 19.9987C30.3032 18.9946 29.489 18.1807 28.4849 18.1807L15.905 18.1814L20.0738 14.0125C20.7838 13.3026 20.7838 12.1513 20.0738 11.4413C19.7187 11.0862 19.2535 10.9087 18.7882 10.9087C18.3229 10.9087 17.8575 11.0862 17.5026 11.4413L10.2299 18.7141C9.88855 19.0553 9.69704 19.5176 9.69704 19.9999C9.69704 20.4822 9.88867 20.9447 10.2296 21.2855L17.5024 28.5581Z" fill="black"/>
</g>
<defs>
<clipPath id="clip0">
<rect width="40" height="40" fill="white" transform="translate(40 40) rotate(-180)"/>
</clipPath>
</defs>
</svg>
