<svg width="40" height="40" viewBox="0 0 40 40" fill="none" xmlns="http://www.w3.org/2000/svg">
<g clip-path="url(#clip0)">
<path d="M-8.74228e-07 20C-3.92179e-07 31.028 8.97212 40 20.0001 40C31.028 40 40 31.028 40 20C40 8.972 31.028 -2.54837e-06 20.0001 -2.06633e-06C8.97212 -1.58428e-06 -1.35628e-06 8.972 -8.74228e-07 20ZM36.3636 20C36.3636 29.023 29.0229 36.3636 20.0001 36.3636C10.9772 36.3636 3.63636 29.023 3.63636 20C3.63636 10.977 10.9772 3.63636 20.0001 3.63636C29.0229 3.63636 36.3636 10.9771 36.3636 20Z" fill="black"/>
<path d="M11.4419 17.5024C10.7319 18.2123 10.7319 19.3636 11.4419 20.0736C12.1518 20.7837 13.3031 20.7837 14.0132 20.0736L18.1822 15.9046L18.183 28.4852C18.183 29.4893 18.9972 30.3033 20.0013 30.3032C21.0054 30.3032 21.8193 29.489 21.8193 28.4849L21.8186 15.905L25.9875 20.0738C26.6974 20.7838 27.8487 20.7838 28.5587 20.0738C28.9138 19.7187 29.0913 19.2535 29.0913 18.7882C29.0913 18.3229 28.9138 17.8575 28.5587 17.5026L21.2859 10.2299C20.9447 9.88855 20.4824 9.69704 20.0001 9.69704C19.5178 9.69704 19.0553 9.88867 18.7145 10.2296L11.4419 17.5024Z" fill="black"/>
</g>
<defs>
<clipPath id="clip0">
<rect width="40" height="40" fill="white" transform="translate(0 40) rotate(-90)"/>
</clipPath>
</defs>
</svg>
