<svg width="32" height="28" viewBox="0 0 32 28" fill="none" xmlns="http://www.w3.org/2000/svg">
<path d="M31.4885 12.7149L19.9322 0.773104C19.6023 0.432224 19.1626 0.245117 18.6938 0.245117C18.2245 0.245117 17.7851 0.432493 17.4552 0.773104L16.406 1.85757C16.0764 2.19792 15.8948 2.65251 15.8948 3.13722C15.8948 3.62165 16.0764 4.09157 16.406 4.43191L23.1478 11.4138H1.72877C0.763051 11.4138 0 12.195 0 13.1932V14.7263C0 15.7245 0.763051 16.5845 1.72877 16.5845H23.2243L16.4062 23.6053C16.0766 23.9462 15.895 24.3884 15.895 24.8731C15.895 25.3573 16.0766 25.806 16.4062 26.1466L17.4555 27.2276C17.7853 27.5684 18.2248 27.7542 18.6941 27.7542C19.1629 27.7542 19.6026 27.566 19.9325 27.2251L31.4888 15.2836C31.8194 14.9416 32.0013 14.4852 32 13.9999C32.001 13.5131 31.8194 13.0563 31.4885 12.7149Z" fill="white"/>
</svg>
