<svg width="40" height="42" viewBox="0 0 40 42" fill="none" xmlns="http://www.w3.org/2000/svg">
<path d="M28.7688 33.5048L33.3326 17.5258C33.4628 17.0697 33.405 16.5953 33.1706 16.1893C32.936 15.7829 32.554 15.496 32.0941 15.3806L30.6303 15.0142C30.1707 14.8989 29.6862 14.969 29.2665 15.2113C28.8469 15.4535 28.5308 15.8458 28.4008 16.3014L25.7253 25.6309L15.0158 7.08148C14.5329 6.24514 13.4748 5.97493 12.6104 6.47402L11.2826 7.2406C10.4182 7.73968 10.055 8.8305 10.5378 9.66684L21.2856 28.2825L11.7963 25.8883C11.3363 25.7733 10.8625 25.8371 10.4428 26.0795C10.0235 26.3216 9.72569 26.7032 9.59552 27.159L9.18399 28.6081C9.05372 29.0642 9.11255 29.5376 9.34721 29.9441C9.58162 30.3501 9.96442 30.6368 10.4246 30.752L26.5444 34.7893C27.0059 34.9047 27.4921 34.834 27.9117 34.5902C28.3339 34.3477 28.6386 33.9621 28.7688 33.5048Z" fill="#FFF50A"/>
</svg>
