<svg width="35" height="26" viewBox="0 0 35 26" fill="none" xmlns="http://www.w3.org/2000/svg">
<g clip-path="url(#clip0)">
<path d="M24.9903 9.85605C24.9903 5.61846 19.5055 2.18359 12.739 2.18359C5.97258 2.18359 0.487793 5.61846 0.487793 9.85605C0.487793 11.4994 1.32005 13.0185 2.72423 14.2668C1.93733 15.7168 0.636221 16.8648 0.617373 16.8811C0.553951 16.9355 0.511511 17.0039 0.495306 17.0777C0.479101 17.1515 0.489843 17.2276 0.526202 17.2965C0.562561 17.3654 0.62294 17.4241 0.699866 17.4653C0.776792 17.5066 0.866886 17.5285 0.958994 17.5285C3.11356 17.5285 4.90118 16.9411 6.18521 16.3306C8.08179 17.0854 10.3253 17.5285 12.739 17.5285C19.5055 17.5285 24.9903 14.0936 24.9903 9.85605ZM11.7966 14.4595V13.6784C11.1316 13.6506 10.4849 13.4616 9.94893 13.1341C9.71922 12.9936 9.70744 12.7136 9.91536 12.552L10.6074 12.0144C10.7706 11.8878 11.0133 11.8821 11.2041 11.9794C11.432 12.0954 11.6906 12.1578 11.9592 12.1578H13.6149C13.9977 12.1578 14.3099 11.8739 14.3099 11.5253C14.3099 11.24 14.0973 10.9887 13.7933 10.9149L11.1428 10.2675C10.0479 9.99991 9.28277 9.14443 9.28277 8.18681C9.28277 7.01101 10.4048 6.05579 11.796 6.02558V5.25258C11.796 5.04062 12.0069 4.86895 12.2672 4.86895H13.2096C13.47 4.86895 13.6808 5.04062 13.6808 5.25258V6.03373C14.3458 6.06154 14.9926 6.25 15.5285 6.57799C15.7583 6.7185 15.77 6.99854 15.5621 7.16014L14.87 7.69769C14.7069 7.82429 14.4642 7.83004 14.2734 7.7327C14.0454 7.61617 13.7869 7.55431 13.5183 7.55431H11.8626C11.4797 7.55431 11.1676 7.83819 11.1676 8.18681C11.1676 8.47213 11.3802 8.7234 11.6841 8.79725L14.3346 9.44462C15.4296 9.71219 16.1947 10.5677 16.1947 11.5253C16.1947 12.7016 15.0727 13.6563 13.6814 13.6865V14.4595C13.6814 14.6715 13.4706 14.8431 13.2102 14.8431H12.2678C12.0075 14.8431 11.7966 14.6715 11.7966 14.4595ZM32.1767 20.4052C33.582 19.157 34.4143 17.6374 34.4143 15.994C34.4143 12.7841 31.2637 10.0383 26.7967 8.89364C26.8474 9.21013 26.8751 9.53093 26.8751 9.85605C26.8751 14.9328 20.5339 19.063 12.739 19.063C12.1041 19.063 11.4833 19.0261 10.8701 18.9728C12.7273 21.7306 17.0841 23.6665 22.1631 23.6665C24.5768 23.6665 26.8203 23.2234 28.7169 22.4686C30.0009 23.0791 31.7885 23.6665 33.9431 23.6665C34.1316 23.6665 34.3018 23.5749 34.3754 23.4344C34.4502 23.2934 34.4143 23.1304 34.2841 23.0186C34.2659 23.0028 32.9636 21.8563 32.1767 20.4052Z" fill="#12EB90"/>
</g>
<defs>
<clipPath id="clip0">
<rect width="33.9265" height="24.5519" fill="white" transform="translate(0.487793 0.648926)"/>
</clipPath>
</defs>
</svg>
