<svg width="15" height="19" viewBox="0 0 15 19" fill="none" xmlns="http://www.w3.org/2000/svg">
<path d="M14.3697 4.45097C13.5323 3.61355 12.1645 3.61999 11.3229 4.45097L8.27637 7.49779L11.3229 10.5443C12.1637 11.3851 13.5289 11.3851 14.3697 10.5443C15.2105 9.70349 15.2105 8.33854 14.3697 7.49779C15.2105 6.65697 15.2105 5.29176 14.3697 4.45097Z" fill="#13CD80"/>
<path d="M3.67737 4.45091C2.83574 3.61993 1.46797 3.61349 0.630589 4.45091C-0.210196 5.29169 -0.210196 6.6569 0.630589 7.49772C-0.210196 8.33851 -0.210196 9.70346 0.630589 10.5442C1.47138 11.385 2.83662 11.385 3.67737 10.5442L6.7239 7.49772L3.67737 4.45091Z" fill="#13CD80"/>
<path d="M6.94481 15.9526C6.884 16.8902 6.10226 17.6346 5.14952 17.6346H5.14923C4.84615 17.6346 4.60059 17.8803 4.60059 18.1834C4.60059 18.4865 4.84644 18.7322 5.14952 18.7322C6.70926 18.7322 7.9844 17.493 8.04382 15.9476C7.85683 15.8886 7.67583 15.8128 7.50267 15.7208C7.32439 15.8155 7.13772 15.893 6.94481 15.9526Z" fill="#13CD80"/>
<path d="M7.50228 8.27618L4.45579 11.3227C3.615 12.1635 3.615 13.5287 4.45579 14.3695C5.29657 15.2103 6.66153 15.2103 7.50228 14.3695C8.34307 15.2103 9.70831 15.2103 10.5491 14.3695C11.3865 13.5321 11.3801 12.1643 10.5491 11.3227L7.50228 8.27618Z" fill="#13CD80"/>
<path d="M7.50234 6.72394L10.5491 3.67741C11.3801 2.83578 11.3865 1.46801 10.5491 0.630589C9.70834 -0.210196 8.34313 -0.210196 7.50231 0.630589C6.66152 -0.210196 5.29657 -0.210196 4.45578 0.630589C3.615 1.47138 3.615 2.83662 4.45578 3.67741L7.50234 6.72394Z" fill="#13CD80"/>
</svg>
