<svg width="40" height="40" viewBox="0 0 40 40" fill="none" xmlns="http://www.w3.org/2000/svg">
<g clip-path="url(#clip0)">
<path d="M39.448 7.08825L20.1429 0.022241C20.0629 -0.0072509 19.9726 -0.0072509 19.8901 0.022241L0.55128 7.0708C0.405626 7.12376 0.309326 7.2634 0.309326 7.41748L0.363495 31.7838C0.363495 31.9342 0.45498 32.0697 0.595217 32.1244L19.2816 39.5871V39.6304C19.2816 39.7526 19.343 39.867 19.4441 39.9362C19.5452 40.003 19.6722 40.0174 19.7872 39.9735L20.0189 39.8808L20.2506 39.9735C20.294 39.9903 20.3409 40.0006 20.3873 40.0006C20.4601 40.0006 20.5317 39.9783 20.5943 39.9374C20.6954 39.8682 20.7568 39.7538 20.7568 39.6316V39.5883L39.4432 32.1256C39.5829 32.0697 39.6749 31.9355 39.6749 31.7838L39.6912 7.43614C39.6894 7.27965 39.5937 7.14242 39.448 7.08825ZM19.281 37.9987L1.83688 31.0338V9.03592L19.2804 16.0008L19.281 37.9987ZM20.0177 14.7092L2.87873 7.86407L20.0201 1.54559L37.315 7.80147L20.0177 14.7092ZM38.1979 31.0338L20.755 37.9987V16.0008L38.1979 9.03592V31.0338ZM8.71391 22.8839C8.71391 21.8655 9.52644 21.3623 10.5292 21.7602C11.5313 22.1592 12.3444 23.3088 12.3444 24.3296C12.3438 25.3479 11.5313 25.8517 10.5286 25.4533C9.52584 25.0536 8.7133 23.9028 8.71391 22.8839ZM3.61001 15.2725C3.61001 14.2536 4.42314 13.7504 5.42586 14.1494C6.42859 14.5479 7.24112 15.6975 7.24112 16.7176C7.24112 17.7378 6.42799 18.2398 5.42526 17.8413C4.42194 17.4417 3.61001 16.2921 3.61001 15.2725ZM13.8184 19.3346C13.8184 18.315 14.6315 17.8119 15.6343 18.2109C16.637 18.6099 17.4495 19.7595 17.4495 20.7791C17.4495 21.7993 16.6358 22.3018 15.6337 21.9028C14.6309 21.5038 13.8184 20.3542 13.8184 19.3346ZM3.6082 25.9426C3.6088 24.9242 4.42134 24.4204 5.42406 24.8189C6.42678 25.2185 7.23931 26.3675 7.23931 27.3883C7.23931 28.4079 6.42618 28.911 5.42346 28.512C4.42013 28.1129 3.6082 26.9622 3.6082 25.9426ZM13.8172 30.0052C13.8178 28.9851 14.6303 28.4831 15.6331 28.8815C16.6358 29.28 17.4483 30.4296 17.4483 31.4509C17.4483 32.4693 16.6352 32.9725 15.6325 32.574C14.6291 32.175 13.8172 31.0242 13.8172 30.0052ZM16.7381 7.6504C16.2771 8.38951 14.8067 8.90652 13.4507 8.8042C12.0946 8.70248 11.3682 8.02116 11.8286 7.28266C12.289 6.54416 13.7588 6.02775 15.1154 6.12947C16.4703 6.23058 17.1973 6.9119 16.7381 7.6504ZM26.4391 8.37867C25.9793 9.11838 24.5083 9.63418 23.1529 9.53247C21.7957 9.43075 21.0704 8.74883 21.5302 8.01093C21.9901 7.27122 23.4616 6.75542 24.8177 6.85653C26.1725 6.95945 26.8996 7.64077 26.4391 8.37867ZM28.3122 25.4761C27.6856 24.7069 27.8523 23.2462 28.6847 22.2134C29.5159 21.1806 30.6974 20.9681 31.3215 21.7367C31.9481 22.5047 31.7814 23.966 30.9502 24.9988C30.119 26.0317 28.9375 26.2441 28.3122 25.4761Z" fill="black"/>
</g>
<defs>
<clipPath id="clip0">
<rect width="40" height="40.0006" fill="white"/>
</clipPath>
</defs>
</svg>
