<svg width="16" height="15" viewBox="0 0 16 15" fill="none" xmlns="http://www.w3.org/2000/svg"><g clip-path="url(#a)"><path d="M14.182 2.362H1.818A1.32 1.32 0 0 0 .5 3.68v7.64a1.32 1.32 0 0 0 1.318 1.319h12.364A1.32 1.32 0 0 0 15.5 11.32V3.68a1.32 1.32 0 0 0-1.318-1.318zm-.172.879l-.176.146-5.31 4.422a.817.817 0 0 1-1.047 0l-5.31-4.422-.177-.146h12.02zm-12.631.634l4.327 3.603-4.327 2.88V3.875zm12.803 7.885H1.818a.44.44 0 0 1-.43-.352L6.41 8.065l.504.42a1.693 1.693 0 0 0 2.17 0l.505-.42 5.022 3.343a.44.44 0 0 1-.43.352zm.44-1.402l-4.328-2.88 4.327-3.603v6.483z" fill="#fff"/></g><defs><clipPath id="a"><path fill="#fff" transform="translate(.5)" d="M0 0h15v15H0z"/></clipPath></defs></svg>