<svg width="21" height="21" viewBox="0 0 21 21" fill="none" xmlns="http://www.w3.org/2000/svg">
<path d="M9.98612 12.8952L5.84835 17.033L7.31809 18.4182C7.99309 19.0932 7.51505 20.2473 6.5605 20.2473H1.5605C0.968756 20.2473 0.491211 19.7676 0.491211 19.1758V14.1758C0.491211 13.2213 1.64313 12.7432 2.31809 13.4182L3.7055 14.8901L7.84327 10.7523C8.12219 10.4734 8.57447 10.4734 8.8534 10.7523L9.98612 11.8851C10.2651 12.164 10.2651 12.6162 9.98612 12.8952ZM10.9963 7.59931L15.1341 3.46154L13.6643 2.07632C12.9893 1.40132 13.4674 0.247253 14.4219 0.247253H19.4219C20.0137 0.247253 20.4912 0.726941 20.4912 1.31868V6.31868C20.4912 7.27324 19.3393 7.75127 18.6643 7.07632L17.2769 5.6044L13.1392 9.74216C12.8602 10.0211 12.408 10.0211 12.129 9.74216L10.9963 8.60944C10.7173 8.33051 10.7173 7.87828 10.9963 7.59931Z" fill="black"/>
</svg>
