<svg width="41" height="37" viewBox="0 0 41 37" fill="none" xmlns="http://www.w3.org/2000/svg">
<path d="M39.2475 3.35156H15.2272C14.5578 1.40625 12.707 0 10.5255 0C8.34401 0 6.48539 1.40625 5.82385 3.35156H2.0751C1.20092 3.35156 0.5 4.05469 0.5 4.91406C0.5 5.77344 1.2088 6.47656 2.0751 6.47656H5.82385C6.48539 8.42188 8.33614 9.82813 10.5177 9.82813C12.6992 9.82813 14.5578 8.42188 15.2115 6.47656H39.2318C40.106 6.47656 40.8069 5.77344 40.8069 4.91406C40.8069 4.05469 40.1138 3.35156 39.2475 3.35156ZM10.5255 6.70313C9.53321 6.70313 8.72204 5.89844 8.72204 4.91406C8.72204 3.92969 9.53321 3.125 10.5255 3.125C11.5178 3.125 12.329 3.92969 12.329 4.91406C12.329 5.89844 11.5178 6.70313 10.5255 6.70313Z" fill="#C4C4C4"/>
<path d="M39.2475 16.7578H35.4988C34.8372 14.8125 32.9865 13.4062 30.805 13.4062C28.6235 13.4062 26.7648 14.8125 26.1112 16.7578H2.0751C1.20092 16.7578 0.5 17.4609 0.5 18.3203C0.5 19.1875 1.2088 19.8828 2.0751 19.8828H26.0954C26.757 21.8281 28.6077 23.2344 30.7892 23.2344C32.9707 23.2344 34.8294 21.8281 35.483 19.8828H39.2475C40.1217 19.8828 40.8226 19.1797 40.8226 18.3203C40.8226 17.4609 40.1138 16.7578 39.2475 16.7578ZM30.7971 20.1094C29.8048 20.1094 28.9936 19.3047 28.9936 18.3203C28.9936 17.3359 29.8048 16.5312 30.7971 16.5312C31.7894 16.5312 32.6006 17.3359 32.6006 18.3203C32.6006 19.3125 31.7894 20.1094 30.7971 20.1094Z" fill="#C4C4C4"/>
<path d="M39.2475 30.1641H21.9765C21.315 28.2187 19.4642 26.8125 17.2827 26.8125C15.1012 26.8125 13.2426 28.2187 12.5889 30.1641H2.0751C1.20092 30.1641 0.5 30.8672 0.5 31.7266C0.5 32.5938 1.2088 33.2891 2.0751 33.2891H12.581C13.2426 35.2344 15.0933 36.6406 17.2748 36.6406C19.4564 36.6406 21.315 35.2344 21.9687 33.2891H39.2475C40.1217 33.2891 40.8226 32.5859 40.8226 31.7266C40.8226 30.8672 40.1138 30.1641 39.2475 30.1641ZM17.2827 33.5156C16.2904 33.5156 15.4792 32.7109 15.4792 31.7266C15.4792 30.7422 16.2904 29.9375 17.2827 29.9375C18.275 29.9375 19.0862 30.7422 19.0862 31.7266C19.0862 32.7188 18.275 33.5156 17.2827 33.5156Z" fill="#C4C4C4"/>
</svg>
