<svg width="30" height="30" viewBox="0 0 30 30" fill="none" xmlns="http://www.w3.org/2000/svg">
<g clip-path="url(#clip0)">
<path d="M3.1767 14.631C3.1767 14.631 4.36193 16.3722 6.84607 17.8461C6.84607 17.8461 5.04695 2.64088 16.7694 0.00012207C13.7661 11.0228 20.5897 14.1314 23.0771 8.3079C27.231 13.8539 24.077 18.6924 24.077 18.6924C25.7803 18.9378 27.211 17.077 27.211 17.077C27.2238 17.3062 27.231 17.537 27.231 17.7694C27.231 24.5242 21.7551 30.0001 15.0003 30.0001C8.24541 30.0001 2.76953 24.5242 2.76953 17.7694C2.76953 16.6843 2.91156 15.6326 3.1767 14.631Z" fill="#FF6536"/>
<path d="M27.2108 17.077C27.2108 17.077 25.7801 18.9378 24.0768 18.6924C24.0768 18.6924 27.2307 13.8539 23.0769 8.3079C20.5895 14.1314 13.7658 11.0228 16.7692 0.00012207C16.1413 0.141567 15.5526 0.319282 15 0.52852V30.0001C21.7549 30.0001 27.2307 24.5242 27.2307 17.7694C27.2307 17.5369 27.2236 17.3062 27.2108 17.077Z" fill="#FF421D"/>
<path d="M9.63574 24.6362C9.63574 27.5986 12.0373 30.0001 14.9996 30.0001C17.962 30.0001 20.3636 27.5986 20.3636 24.6362C20.3636 23.0506 19.6756 21.6257 18.5818 20.6437C16.508 23.4612 13.5526 19.1873 15.8558 16.0663C15.8558 16.0663 9.63574 16.8458 9.63574 24.6362Z" fill="#FBBF00"/>
<path d="M20.3639 24.6362C20.3639 23.0506 19.676 21.6257 18.5822 20.6437C16.5083 23.4612 13.553 19.1873 15.8562 16.0663C15.8562 16.0663 15.5182 16.1088 15 16.2723V30.0001C17.9624 30.0001 20.3639 27.5986 20.3639 24.6362Z" fill="#FFA900"/>
</g>
<defs>
<clipPath id="clip0">
<rect width="30" height="30" fill="white" transform="translate(0 0.00012207)"/>
</clipPath>
</defs>
</svg>
