<svg width="100" height="100" viewBox="0 0 100 100" fill="none" xmlns="http://www.w3.org/2000/svg">
<g clip-path="url(#clip0)">
<path d="M10.5882 48.7695C10.5882 48.7695 14.539 54.5736 22.8194 59.4865C22.8194 59.4865 16.8224 8.80254 55.8972 0C45.886 36.7424 68.6315 47.1043 76.9228 27.6926C90.769 46.1791 80.256 62.3076 80.256 62.3076C85.9335 63.1256 90.7026 56.9229 90.7026 56.9229C90.7452 57.6869 90.769 58.4563 90.769 59.2311C90.7692 81.7471 72.5163 100 50.0001 100C27.4839 100 9.23096 81.7471 9.23096 59.2309C9.23096 55.6141 9.70439 52.1082 10.5882 48.7695Z" fill="#FF6536"/>
<path d="M90.7027 56.9229C90.7027 56.9229 85.9336 63.1256 80.2561 62.3076C80.2561 62.3076 90.7691 46.1791 76.9228 27.6926C68.6316 47.1043 45.8861 36.7424 55.8973 0C53.8045 0.471484 51.842 1.06387 50 1.76133V100C72.5162 100 90.7691 81.7471 90.7691 59.2309C90.7691 58.4561 90.7453 57.6869 90.7027 56.9229Z" fill="#FF421D"/>
<path d="M32.1201 82.1201C32.1201 91.9947 40.1252 99.9998 49.9998 99.9998C59.8744 99.9998 67.8795 91.9947 67.8795 82.1201C67.8795 76.8348 65.5863 72.0852 61.9404 68.8119C55.0275 78.2035 45.1764 63.9572 52.8537 53.5537C52.8537 53.5537 32.1201 56.1519 32.1201 82.1201Z" fill="#FBBF00"/>
<path d="M67.8797 82.1201C67.8797 76.8348 65.5865 72.0852 61.9406 68.8119C55.0277 78.2035 45.1766 63.9572 52.8539 53.5537C52.8539 53.5537 51.7273 53.6953 50 54.2404V99.9998C59.8746 99.9998 67.8797 91.9947 67.8797 82.1201Z" fill="#FFA900"/>
</g>
<defs>
<clipPath id="clip0">
<rect width="100" height="100" fill="white"/>
</clipPath>
</defs>
</svg>
