<svg width="28" height="36" viewBox="0 0 28 36" fill="none" xmlns="http://www.w3.org/2000/svg">
<path d="M4.97603 6.33842C4.81867 6.33849 4.6678 6.27601 4.55651 6.16472C4.44522 6.05343 4.38274 5.90257 4.38281 5.7452V0.999467C4.38281 0.671824 4.64839 0.40625 4.97603 0.40625C5.30367 0.40625 5.56925 0.671824 5.56925 0.999467V5.7452C5.56932 5.90257 5.50684 6.05343 5.39555 6.16472C5.28433 6.27594 5.13339 6.33842 4.97603 6.33842Z" fill="#C03A2B"/>
<path d="M22.7724 6.33842C22.6151 6.33849 22.4642 6.27601 22.3529 6.16472C22.2416 6.05343 22.1791 5.90257 22.1792 5.7452V0.999467C22.1792 0.671824 22.4448 0.40625 22.7724 0.40625C23.1001 0.40625 23.3656 0.671824 23.3656 0.999467V5.7452C23.3657 5.90257 23.3032 6.05343 23.1919 6.16472C23.0807 6.27594 22.9298 6.33842 22.7724 6.33842Z" fill="#C03A2B"/>
<path d="M23.4604 26.9763C19.5735 27.6839 16.6478 30.9163 16.33 34.8542C16.2953 35.1758 16.0186 35.4162 15.6953 35.4059H12.0529C11.7296 35.4162 11.453 35.1758 11.4182 34.8542C11.1003 30.9162 8.1747 27.6838 4.28782 26.9763C4.09231 26.9453 3.92559 26.8179 3.84431 26.6373C3.76303 26.4569 3.77807 26.2476 3.88437 26.0806C5.6107 23.4348 7.3844 20.5933 7.98951 19.3891C9.15223 17.0578 6.66069 13.2612 5.54541 11.7426L5.61665 11.6239C6.31889 12.0462 7.12259 12.2696 7.942 12.2705C9.38506 12.2616 10.7411 11.5792 11.608 10.4257C12.0521 11.2516 12.9385 11.7412 13.8741 11.6774C14.8097 11.7413 15.6961 11.2516 16.1402 10.4257C17.0071 11.5793 18.3632 12.2617 19.8062 12.2705C20.6123 12.2721 21.4038 12.0547 22.096 11.6417L22.1791 11.7781C21.052 13.3205 18.608 17.0755 19.7587 19.3891C20.3638 20.5933 22.1375 23.4348 23.8639 26.0805C23.9701 26.2475 23.9852 26.4568 23.9039 26.6373C23.8226 26.8179 23.6559 26.9453 23.4604 26.9763Z" fill="#C03A2B"/>
<path d="M15.9978 18.8671C15.9918 18.9561 15.9918 19.045 15.9918 19.1281C15.9603 20.6573 16.3284 22.1684 17.0596 23.5119C17.113 23.6068 17.1664 23.7077 17.2257 23.8026C17.1427 23.7551 17.0596 23.7077 16.9766 23.6661C16.0193 23.1665 14.9538 22.9098 13.874 22.9187C12.6975 22.9056 11.5394 23.211 10.5223 23.8026C10.5817 23.7077 10.635 23.6068 10.6884 23.5119C11.4197 22.1684 11.7876 20.6573 11.7562 19.1281C11.7562 19.045 11.7562 18.956 11.7503 18.8671C11.6533 16.5598 11.0347 14.3045 9.941 12.2705C9.83423 12.0629 9.75712 11.9383 9.7334 11.8968C9.7498 11.8926 9.76573 11.8866 9.78084 11.879C10.5005 11.5528 11.1283 11.0535 11.6079 10.4257C12.052 11.2516 12.9384 11.7412 13.874 11.6774C14.8097 11.7413 15.6961 11.2516 16.1401 10.4257C16.6198 11.0535 17.2475 11.5528 17.9672 11.879C17.9824 11.8866 17.9982 11.8926 18.0147 11.8968C17.9909 11.9383 17.9138 12.0629 17.807 12.2705C16.7134 14.3045 16.0947 16.5598 15.9978 18.8671Z" fill="#E64C3C"/>
<path d="M1.68235 30.065C1.29975 30.077 0.92849 29.9339 0.652936 29.6682C-0.0607978 28.9541 0.209219 27.602 1.28033 26.5228C2.18171 25.621 3.34094 25.2663 4.10389 25.6605C4.367 25.7969 4.48916 26.1065 4.39004 26.3858C4.65596 26.4582 4.8369 26.7042 4.82685 26.9796C4.74797 27.7699 4.38136 28.5037 3.79682 29.0414C3.25009 29.6399 2.49486 30.0061 1.68638 30.065L1.68235 30.065ZM3.39487 26.6824C2.90255 26.7479 2.45029 26.9885 2.12094 27.3602C1.44255 28.0435 1.37132 28.7082 1.49183 28.829C1.54768 28.8676 1.61543 28.8851 1.68303 28.8785H1.6842C2.17781 28.8176 2.63158 28.5766 2.95861 28.2019C3.3287 27.8744 3.57069 27.4263 3.64165 26.9373C3.64349 26.8767 3.65484 26.8168 3.67528 26.7597C3.63474 26.7488 3.59551 26.7335 3.55825 26.7142C3.50698 26.6909 3.45106 26.6801 3.39487 26.6824Z" fill="#E64C3C"/>
<path d="M5.42079 31.2536C5.23048 31.2534 5.05179 31.1619 4.94029 31.0076C4.8288 30.8533 4.79811 30.655 4.85772 30.4742C5.21284 29.3978 4.4302 27.9304 4.0774 27.3493C3.96741 27.1683 3.96235 26.9422 4.0642 26.7564C4.16606 26.5706 4.35924 26.4532 4.57109 26.4485C4.78293 26.4438 4.98117 26.5524 5.09116 26.7336C5.63571 27.6297 6.47632 29.3561 5.98386 30.8461C5.90375 31.0892 5.67673 31.2535 5.42079 31.2536Z" fill="#E64C3C"/>
<path d="M26.0657 30.065H26.0617C25.2514 30.0056 24.4946 29.6378 23.9472 29.0373C23.3647 28.5003 22.9996 27.768 22.9213 26.9796C22.9112 26.7042 23.0922 26.4581 23.3581 26.3858C23.2591 26.1064 23.3812 25.7968 23.6443 25.6605C24.4043 25.2674 25.5653 25.6205 26.4661 26.5213C27.539 27.602 27.8089 28.9541 27.0952 29.6679C26.8198 29.9339 26.4485 30.0771 26.0657 30.065ZM24.0729 26.7597C24.0933 26.8168 24.1047 26.8767 24.1066 26.9373C24.1768 27.4245 24.4173 27.8712 24.7855 28.1979C25.1133 28.5745 25.5686 28.8169 26.064 28.8787H26.0652C26.1328 28.8854 26.2006 28.8677 26.2564 28.8288C26.3769 28.7083 26.3056 28.0436 25.6255 27.3588C25.0369 26.7705 24.4002 26.6043 24.19 26.7144C24.1527 26.7336 24.1135 26.7488 24.0729 26.7597Z" fill="#E64C3C"/>
<path d="M22.3273 31.2536C22.0713 31.2535 21.8443 31.0892 21.7642 30.8461C21.2718 29.3561 22.1123 27.6297 22.6569 26.7336C22.7669 26.5525 22.9652 26.4438 23.177 26.4485C23.3888 26.4532 23.5821 26.5706 23.6838 26.7564C23.7857 26.9422 23.7806 27.1683 23.6706 27.3493C23.3178 27.9304 22.5352 29.3978 22.8903 30.4742C22.9499 30.655 22.9192 30.8533 22.8078 31.0076C22.6963 31.162 22.5176 31.2534 22.3273 31.2536Z" fill="#E64C3C"/>
<path d="M5.54501 11.7425C5.54344 11.7426 5.54187 11.742 5.54077 11.7408C5.53968 11.7397 5.53906 11.7381 5.53906 11.7366" fill="#C03A2B"/>
<path d="M12.391 8.97833C12.2125 9.4993 11.9478 9.98656 11.6079 10.4198V10.4258C10.741 11.5794 9.38486 12.2618 7.94188 12.2706C7.12246 12.2697 6.31877 12.0463 5.61652 11.624C4.0941 10.6852 3.1755 9.01682 3.19614 7.22828C3.19614 7.12151 3.20209 7.02068 3.20804 6.9139C3.2323 6.30756 3.71163 5.81797 4.31736 5.78085C5.03513 5.74524 5.9309 5.74524 7.05205 5.74524C9.53758 5.74531 11.6436 7.09779 12.391 8.97833Z" fill="#E64C3C"/>
<path d="M24.5518 7.22834C24.5729 9.03069 23.6386 10.7096 22.0959 11.6419C21.4036 12.0549 20.6122 12.2722 19.8061 12.2707C18.363 12.2618 17.007 11.5794 16.1401 10.4258V10.4199C15.8024 9.98518 15.5379 9.49826 15.3569 8.97839C16.1044 7.09791 18.2104 5.74536 20.6959 5.74536C21.817 5.74536 22.7128 5.74536 23.4306 5.78098C24.0363 5.8181 24.5156 6.30768 24.5399 6.91402C24.5459 7.02066 24.5518 7.12156 24.5518 7.22834Z" fill="#E64C3C"/>
<path d="M16.1401 10.4198V10.4257C15.696 11.2517 14.8096 11.7413 13.874 11.6774C12.9384 11.7413 12.052 11.2517 11.6079 10.4257V10.4198C11.9478 9.98649 12.2125 9.49917 12.391 8.97827H15.3571C15.5379 9.49814 15.8024 9.98506 16.1401 10.4198Z" fill="#C03A2B"/>
<path d="M17.7002 30.8027C16.8991 32.0113 16.4268 33.4077 16.3298 34.8544C16.2951 35.1759 16.0184 35.4164 15.6951 35.406H12.0527C11.7294 35.4164 11.4528 35.1759 11.418 34.8544C11.3196 33.4135 10.8517 32.0222 10.0596 30.8146L10.1366 30.7612L12.0764 27.5222C12.4564 26.8917 13.1393 26.5066 13.8756 26.5078C14.6118 26.509 15.2934 26.8963 15.6713 27.5281L17.5874 30.7256L17.7002 30.8027Z" fill="#E64C3C"/>
</svg>
