<svg width="20" height="20" viewBox="0 0 20 20" fill="none" xmlns="http://www.w3.org/2000/svg">
<g clip-path="url(#clip0)">
<path d="M9.42571 9.65226C6.67153 6.73234 4.59642 11.9833 0.173721 12.7702C-0.0326074 12.8069 -0.0639355 13.0891 0.127275 13.1749C3.82915 14.8362 4.6504 20.1309 9.44184 18.477C9.5556 18.4378 9.67946 18.4378 9.79321 18.477C14.5847 20.1309 15.4059 14.8362 19.1078 13.1749C19.299 13.0891 19.2676 12.8069 19.0613 12.7702C14.6386 11.9833 12.5635 6.7323 9.80935 9.65226C9.70567 9.76218 9.52938 9.76218 9.42571 9.65226ZM5.08255 13.7453C7.02497 13.5739 7.88052 12.7116 9.61755 12.781C11.3546 12.7116 12.2101 13.5739 14.1525 13.7453C14.1781 13.7476 14.184 13.7825 14.1606 13.7928C11.1319 15.1257 8.10325 15.1257 5.07454 13.7928C5.05106 13.7825 5.057 13.7475 5.08255 13.7453Z" fill="#DA4A54"/>
<path d="M10.3498 9.17527C11.7065 9.92238 13.1852 11.5313 15.1802 12.3562C15.8331 12.6262 15.9463 13.4953 15.3868 13.9267C13.4185 15.4445 12.274 17.9059 10.2003 18.6034C14.636 19.8268 15.5139 14.7848 19.1111 13.1733C19.302 13.0878 19.2651 12.8064 19.0592 12.7696C14.9315 12.0337 12.8489 7.41035 10.3498 9.17527Z" fill="#D82E3D"/>
<path d="M14.5807 4.24618C14.5807 4.24618 15.0029 3.66649 15.8372 3.66649C16.5811 3.66649 17.0938 4.26161 17.0938 4.95469C17.0938 5.74313 16.4188 6.67353 14.6732 7.48845C14.6147 7.51575 14.5466 7.51575 14.4881 7.48845C12.7425 6.67353 12.0675 5.74313 12.0675 4.95469C12.0675 4.26161 12.5802 3.66649 13.3241 3.66649C14.1584 3.66649 14.5807 4.24618 14.5807 4.24618Z" fill="#DA4A54"/>
<path d="M15.8373 3.66649C15.6188 3.66649 15.4288 3.70645 15.267 3.76516C15.7323 3.96196 16.0261 4.43016 16.0261 4.95469C16.0261 5.67274 15.4655 6.50848 14.0469 7.26758C14.186 7.342 14.3328 7.41575 14.4885 7.48852C14.5469 7.51582 14.6148 7.51575 14.6732 7.48848C16.4189 6.67356 17.0939 5.74313 17.0939 4.95469C17.0939 4.26161 16.5813 3.66649 15.8373 3.66649Z" fill="#D82E3D"/>
<path d="M18.1099 8.44162C18.1099 8.44162 18.4274 8.00565 19.055 8.00565C19.6145 8.00565 20.0001 8.45326 20.0001 8.97451C20.0001 9.56369 19.4989 10.2583 18.2048 10.8683C18.1447 10.8967 18.0751 10.8967 18.0151 10.8683C16.7209 10.2583 16.2197 9.56369 16.2197 8.97451C16.2197 8.45322 16.6053 8.00565 17.1649 8.00565C17.7924 8.00561 18.1099 8.44162 18.1099 8.44162Z" fill="#DA4A54"/>
<path d="M19.0548 8.00558C18.9263 8.00558 18.811 8.02406 18.7085 8.05312C19.0994 8.18137 19.3506 8.55382 19.3506 8.97445C19.3506 9.5273 18.9087 10.1729 17.785 10.7545C17.8587 10.7926 17.9352 10.8305 18.0146 10.8681C18.0748 10.8965 18.1445 10.8966 18.2046 10.8682C19.4987 10.2582 19.9999 9.56362 19.9999 8.97445C19.9999 8.4532 19.6143 8.00558 19.0548 8.00558Z" fill="#D82E3D"/>
<path d="M14.5721 2.45301C14.3991 2.45301 14.2588 2.3127 14.2588 2.13966V1.52036C14.2588 1.34731 14.3991 1.207 14.5721 1.207C14.7452 1.207 14.8855 1.34731 14.8855 1.52036V2.13966C14.8855 2.31274 14.7452 2.45301 14.5721 2.45301Z" fill="#EAAADD"/>
<path d="M13.4104 2.93535C13.3302 2.93535 13.25 2.90477 13.1888 2.84356L12.7508 2.40563C12.6285 2.28328 12.6285 2.08484 12.7508 1.9625C12.8733 1.84016 13.0716 1.84016 13.1941 1.9625L13.632 2.40043C13.7544 2.52277 13.7544 2.72121 13.632 2.84356C13.5708 2.90477 13.4906 2.93535 13.4104 2.93535Z" fill="#EAAADD"/>
<path d="M15.7345 2.9334C15.6544 2.9334 15.5741 2.90281 15.5129 2.8416C15.3905 2.71921 15.3905 2.52082 15.5129 2.39847L15.9509 1.96054C16.0733 1.8382 16.2716 1.8382 16.3941 1.96054C16.5164 2.08288 16.5164 2.28132 16.3941 2.40367L15.9561 2.8416C15.8949 2.90277 15.8147 2.9334 15.7345 2.9334Z" fill="#EAAADD"/>
</g>
<defs>
<clipPath id="clip0">
<rect width="20" height="20" fill="white"/>
</clipPath>
</defs>
</svg>
