<svg width="54" height="54" viewBox="0 0 54 54" fill="none" xmlns="http://www.w3.org/2000/svg">
<path d="M34.6863 3.12805C34.396 3.12892 34.1075 3.09861 33.8266 3.03885L29.025 22.3104H39.0077V11.593C41.568 8.06889 39.0424 3.12805 34.6863 3.12805Z" fill="#DB2116"/>
<path d="M33.8263 3.03895C33.166 2.89846 32.5484 2.59206 32.0529 2.12323C30.7098 0.852328 28.9114 0.110779 27.0002 0.110779C25.089 0.110779 23.2906 0.852328 21.9477 2.12323C21.2412 2.79176 20.287 3.13119 19.3145 3.12826C14.9583 3.12826 12.4325 8.06899 14.9926 11.5934V20.6808L26.9992 28.122L36.0044 11.3197C37.7051 8.19839 36.4135 3.96564 33.8263 3.03895Z" fill="#FF3A2F"/>
<path d="M33.6912 16.7362C33.6912 13.0405 30.6952 10.0445 26.9996 10.0446C23.3039 10.0446 20.3081 13.0406 20.308 16.7362C20.308 18.2112 20.7852 19.5748 21.5937 20.6809V24.4013L26.9995 28.1218L32.4058 20.6811C33.2142 19.5751 33.6912 18.2111 33.6912 16.7362Z" fill="#A41910"/>
<path d="M5.60417 13.0878C5.5153 13.3642 5.3973 13.6292 5.25366 13.8779L20.5482 23.8962L21.5928 20.681L14.9902 11.5939C12.4297 8.06974 6.95026 8.94504 5.60417 13.0878Z" fill="#DB2116"/>
<path d="M5.25398 13.8779C4.9164 14.4624 4.4341 14.9552 3.83499 15.2815C2.2113 16.166 0.950391 17.6473 0.35976 19.465C-0.230764 21.2826 -0.0812585 23.2222 0.712335 24.8921C1.12978 25.7706 1.15781 26.7829 0.854452 27.707C-0.491746 31.8499 3.42668 35.7789 7.56979 34.4332L16.2124 37.2413L26.9997 28.1218L13.8026 14.3652C11.3595 11.7833 6.93483 11.7036 5.25398 13.8779Z" fill="#FF3A2F"/>
<path d="M18.2389 18.2393C14.7241 17.0972 10.949 19.0208 9.80698 22.5356C8.66494 26.0504 10.5885 29.8255 14.1032 30.9675C15.5061 31.4233 16.9503 31.391 18.2522 30.9637L21.7905 32.1134L26.9994 28.1217L21.5935 20.6808C20.7916 19.5701 19.6417 18.6952 18.2389 18.2393Z" fill="#A41910"/>
<path d="M6.08965 43.8241C6.32499 43.994 6.54067 44.1881 6.73277 44.4016L20.9869 32.9515L18.2518 30.9643L7.56906 34.4358C3.42638 35.7819 2.56553 41.2637 6.08965 43.8241Z" fill="#DB2116"/>
<path d="M6.73347 44.4017C7.18502 44.9035 7.50468 45.5143 7.62995 46.185C7.96938 48.0025 8.98853 49.6596 10.5346 50.7829C12.0808 51.9063 13.9716 52.3635 15.8051 52.1247C16.7695 51.9991 17.7411 52.2853 18.5261 52.8594C22.0502 55.4199 26.9979 52.9074 26.9982 48.5512L32.3396 41.1994L26.9999 28.1219L9.83852 36.4221C6.62807 37.9478 5.18507 42.1312 6.73347 44.4017Z" fill="#FF3A2F"/>
<path d="M14.8938 33.3999C12.7216 36.3898 13.3843 40.5745 16.3742 42.7467C19.3641 44.919 23.5488 44.2562 25.721 41.2663C26.588 40.0729 27.0035 38.6894 26.9995 37.3192L29.1863 34.3093L26.9997 28.1219L18.2525 30.9638C16.9483 31.3835 15.7608 32.2066 14.8938 33.3999Z" fill="#A41910"/>
<path d="M35.472 52.8606C35.7064 52.6893 35.9576 52.5442 36.22 52.4274L29.7351 35.3327L27 37.3197L27.0003 48.5524C27.0005 52.9084 31.9479 55.421 35.472 52.8606Z" fill="#DB2116"/>
<path d="M36.2198 52.4274C36.8365 52.1529 37.5162 52.0377 38.1928 52.1258C40.0263 52.3647 41.917 51.9075 43.4633 50.7841C45.0094 49.6608 46.0285 48.0037 46.368 46.1862C46.5466 45.2301 47.119 44.3946 47.9076 43.8254C51.4318 41.2649 50.5712 35.7831 46.4283 34.4366L41.0868 27.0847L26.9993 28.1219L29.5901 47.0083C30.0491 50.5332 33.5819 53.1983 36.2198 52.4274Z" fill="#FF3A2F"/>
<path d="M28.2784 41.2668C30.4507 44.2567 34.6354 44.9194 37.6252 42.7472C40.6151 40.5749 41.2779 36.3902 39.1056 33.4004C38.2385 32.2069 37.0511 31.3843 35.7467 30.9647L33.5599 27.9548L26.9996 28.1224L26.9994 37.3198C26.9956 38.6898 27.4115 40.0736 28.2784 41.2668Z" fill="#A41910"/>
<path d="M53.1454 27.7088C53.0548 27.4329 52.9945 27.1492 52.9646 26.8636L34.7025 27.7486L35.7472 30.9638L46.4302 34.4344C50.573 35.7804 54.4915 31.8517 53.1454 27.7088Z" fill="#DB2116"/>
<path d="M52.9643 26.8638C52.8939 26.1924 52.9944 25.5104 53.2872 24.8941C54.0809 23.2243 54.2304 21.2846 53.6398 19.467C53.0493 17.6493 51.7882 16.1681 50.1646 15.2835C49.3105 14.8183 48.6928 14.0157 48.3951 13.0897C47.049 8.94683 41.5694 8.07132 39.0087 11.5953L26.9993 28.1221L45.762 31.4943C49.2561 32.1471 52.8825 29.6107 52.9643 26.8638Z" fill="#FF3A2F"/>
<path d="M39.8957 30.9678C43.4104 29.8257 45.3339 26.0506 44.1919 22.5359C43.0498 19.0211 39.2747 17.0976 35.7599 18.2396C34.357 18.6953 33.2077 19.5705 32.4055 20.6814L26.9993 28.1221L35.7465 30.9644C37.0483 31.3915 38.493 31.4236 39.8957 30.9678Z" fill="#A41910"/>
<path d="M34.3374 25.7377C34.8878 24.876 34.8888 23.7304 34.2515 22.8531C33.6141 21.9759 32.5242 21.6229 31.5346 21.8801C31.4735 20.8594 30.8008 19.9319 29.7696 19.5968C28.7384 19.2618 27.649 19.6167 26.9996 20.4065C26.3502 19.6167 25.2609 19.2618 24.2296 19.5968C23.1984 19.9319 22.5258 20.8594 22.4646 21.8801C21.475 21.6229 20.3851 21.9759 19.7477 22.8531C19.1104 23.7304 19.1114 24.876 19.6618 25.7377C18.71 26.1114 18.0358 27.0377 18.0358 28.1219C18.0358 29.2062 18.71 30.1325 19.6618 30.506C19.1114 31.3678 19.1104 32.5134 19.7477 33.3906C20.3851 34.2679 21.475 34.6209 22.4646 34.3637C22.5258 35.3844 23.1983 36.3119 24.2296 36.6469C25.2609 36.982 26.3502 36.6271 26.9996 35.8373C27.649 36.6271 28.7384 36.982 29.7696 36.6469C30.8008 36.3119 31.4735 35.3844 31.5346 34.3637C32.5242 34.6209 33.6141 34.2679 34.2515 33.3906C34.8888 32.5134 34.8878 31.3678 34.3374 30.506C35.2892 30.1324 35.9634 29.2061 35.9634 28.1219C35.9634 27.0377 35.2892 26.1114 34.3374 25.7377Z" fill="#FFD185"/>
<path d="M26.9996 33.0115C29.6999 33.0115 31.8889 30.8224 31.8889 28.1221C31.8889 25.4218 29.6999 23.2328 26.9996 23.2328C24.2993 23.2328 22.1102 25.4218 22.1102 28.1221C22.1102 30.8224 24.2993 33.0115 26.9996 33.0115Z" fill="#FFBA48"/>
<path d="M26.9996 29.7517C27.8997 29.7517 28.6294 29.022 28.6294 28.1219C28.6294 27.2218 27.8997 26.4921 26.9996 26.4921C26.0995 26.4921 25.3699 27.2218 25.3699 28.1219C25.3699 29.022 26.0995 29.7517 26.9996 29.7517Z" fill="#FF7A3C"/>
</svg>
