<svg width="35" height="29" viewBox="0 0 35 29" fill="none" xmlns="http://www.w3.org/2000/svg">
<path fill-rule="evenodd" clip-rule="evenodd" d="M1.70893 26.0912L3.23608 26.7261L4.76521 26.0912V22.7035C4.76521 20.5255 5.47191 18.5432 6.16261 16.2015C6.49798 13.2729 3.04044 8.21824 0.171875 9.71353C1.03218 14.6883 1.57317 20.8369 1.70893 26.0912Z" fill="#7E707D"/>
<path fill-rule="evenodd" clip-rule="evenodd" d="M13.6065 14.7941C11.0273 10.1886 10.0571 3.71857 4.22411 0.969637C2.69102 0.13914 2.43945 1.34096 2.43945 1.34096C3.92668 6.64318 7.61377 13.0234 10.674 18.2438C15.0418 24.8955 19.0923 24.7637 24.4861 22.2723C25.1788 21.9509 25.6638 21.6335 26.0791 20.5994C25.6579 20.4956 25.2207 20.5455 24.5819 20.5875C19.1322 20.9487 16.6449 20.2221 13.6065 14.7941Z" fill="#7E707D"/>
<path fill-rule="evenodd" clip-rule="evenodd" d="M0.74072 10.7096C2.21393 12.2527 4.08841 13.8637 6.16257 16.2014C8.2826 18.591 10.6102 21.7372 12.9339 26.3447C14.2115 28.876 13.9839 28.9379 18.2339 28.9379L31.9682 28.9359C33.2797 28.9359 34.1182 28.9059 34.5713 28.8001C35.1802 28.6564 35.1043 28.3749 34.5713 27.8359C34.244 27.5025 33.7389 27.0713 33.114 26.5164L27.1971 21.2601C26.7639 20.8748 26.4266 20.6852 26.0793 20.5993C19.0544 24.2346 16.5491 24.5061 11.6184 17L7.41218 9.82324L6.4021 8.09839L2.43952 1.34094C1.75879 3.15157 0.117898 5.81465 0.0180934 7.71914C-0.00186751 8.10639 -0.00986554 8.49372 0.0180934 8.86299C0.0420192 9.15844 0.0879566 9.44391 0.171833 9.71345C0.283601 10.0828 0.463249 10.4182 0.74072 10.7096Z" fill="#FE8D94"/>
<path fill-rule="evenodd" clip-rule="evenodd" d="M2.08229 28.936H4.42592C4.61357 28.936 4.76526 28.7822 4.76526 28.5946V26.0912H1.70898C1.73093 26.9536 1.74091 27.792 1.74091 28.5946C1.74091 28.7822 1.89465 28.936 2.08229 28.936Z" fill="#FE8D94"/>
<path fill-rule="evenodd" clip-rule="evenodd" d="M23.8477 21.7033L29.2655 26.5164C29.8923 27.0734 30.3954 27.5026 30.7228 27.8359C31.2558 28.375 31.3316 28.6565 30.7228 28.8002C30.2736 28.906 29.4472 28.9359 28.1556 28.9359H28.1756H31.9685C33.28 28.9359 34.1184 28.906 34.5716 28.8002C35.1805 28.6564 35.1046 28.375 34.5716 27.8359C34.2442 27.5026 33.7392 27.0713 33.1143 26.5164L27.1974 21.2601C26.7642 20.8749 26.4269 20.6852 26.0795 20.5994C25.2809 21.0126 24.5403 21.3839 23.8477 21.7033Z" fill="#FF6D75"/>
<path fill-rule="evenodd" clip-rule="evenodd" d="M0.641025 12.7679C1.82877 13.9177 3.18228 15.1994 4.63355 16.8363C3.94285 19.176 3.23615 21.1603 3.23615 23.3363V26.0912H4.76528V22.7035C4.76528 20.5255 5.47198 18.5432 6.16268 16.2015C4.08859 13.8638 2.21411 12.2528 0.740829 10.7096C0.463359 10.4181 0.283711 10.0828 0.171875 9.7135C0.33956 10.6917 0.497265 11.7158 0.641025 12.7679Z" fill="#6A5C6B"/>
<path fill-rule="evenodd" clip-rule="evenodd" d="M3.23584 26.726V28.936H4.42563C4.61328 28.936 4.76497 28.7822 4.76497 28.5946V26.0912H3.23584V26.726Z" fill="#FF6D75"/>
</svg>
