<svg width="34" height="36" viewBox="0 0 34 36" fill="none" xmlns="http://www.w3.org/2000/svg">
<path d="M0.489258 10.8359C0.489258 14.8091 3.72182 18.0418 7.69514 18.0418L8.38141 10.8359L7.69514 3.63C3.72182 3.63 0.489258 6.86263 0.489258 10.8359Z" fill="#FFDF40"/>
<path d="M7.69482 3.63V18.0418C11.6681 18.0418 14.9007 14.8091 14.9007 10.8359C14.9007 6.86263 11.6681 3.63 7.69482 3.63Z" fill="#FFBE40"/>
<path d="M2.54785 10.8359C2.54785 13.674 4.85682 15.983 7.6949 15.983L8.38118 11.1561L7.6949 5.68884C4.85682 5.68884 2.54785 7.99781 2.54785 10.8359Z" fill="#FFBE40"/>
<path d="M7.69482 5.68884V15.983C10.5329 15.983 12.8419 13.674 12.8419 10.8359C12.8419 7.99781 10.5329 5.68884 7.69482 5.68884Z" fill="#FF9F40"/>
<path d="M22.7072 10.3212L21.501 9.80646L26.648 0.541748H33.4302V2.60057H27.8594L23.8562 9.80646L22.7072 10.3212Z" fill="#4D5E80"/>
<path d="M14.9009 1.57117H16.9597V3.62999H14.9009V1.57117Z" fill="#8ADEFD"/>
<path d="M17.9893 5.68884V7.74767H19.0187L19.7049 6.71826L19.0187 5.68884H17.9893Z" fill="#8ADEFD"/>
<path d="M19.0186 5.68884H20.048V7.74767H19.0186V5.68884Z" fill="#50C5FF"/>
<path d="M19.0187 33.4829L19.705 30.3603L19.0187 26.277L19.705 15.9829L19.0187 9.8064H8.72461L11.584 14.9535L17.9893 26.277V33.4829H13.8717V35.5417H19.0187L20.0481 34.5123L19.0187 33.4829Z" fill="#E7F2FF"/>
<path d="M20.048 26.277L26.4532 14.9535L29.3127 9.8064H19.0186V33.4829V35.5417H24.1656V33.4829H20.048C20.048 32.5641 20.048 27.4567 20.048 26.277Z" fill="#D0E8FF"/>
<path d="M14.9009 17.0123L19.0185 24.2182L19.7048 19.8604L19.0185 17.0123H14.9009Z" fill="#FF637B"/>
<path d="M19.0186 17.0123V24.2182L23.1362 17.0123H19.0186Z" fill="#F33C54"/>
</svg>
