<svg width="36" height="36" viewBox="0 0 36 36" fill="none" xmlns="http://www.w3.org/2000/svg">
<path d="M34.0388 17.7191C33.1782 15.8349 30.9541 15.0067 29.0693 15.8673C26.0017 17.2698 22.1162 18.0419 18.1282 18.0419C18.1212 18.0419 18.1145 18.0413 18.1074 18.0413V25.5413C18.1145 25.5413 18.1212 25.5419 18.1282 25.5419C23.2417 25.5419 28.1037 24.5549 32.1869 22.6885C34.0705 21.8273 34.8994 19.6026 34.0388 17.7191Z" fill="#9B6534"/>
<path d="M2.21757 17.7191C3.07819 15.8349 5.30223 15.0067 7.18706 15.8673C10.2547 17.2698 14.1401 18.0419 18.1281 18.0419C18.1352 18.0419 18.1419 18.0413 18.1489 18.0413V25.5413C18.1419 25.5413 18.1352 25.5419 18.1281 25.5419C13.0147 25.5419 8.15268 24.5549 4.06943 22.6885C2.18577 21.8273 1.35695 19.6026 2.21757 17.7191Z" fill="#AA7135"/>
<path d="M30.6308 21.7916C32.0115 21.7916 33.1308 20.6723 33.1308 19.2916C33.1308 17.9109 32.0115 16.7916 30.6308 16.7916C29.2501 16.7916 28.1309 17.9109 28.1309 19.2916C28.1309 20.6723 29.2501 21.7916 30.6308 21.7916Z" fill="#B9A086"/>
<path d="M18.1308 33.0415C22.9632 33.0415 26.8807 29.124 26.8807 24.2916C26.8807 19.4591 22.9632 15.5416 18.1308 15.5416C13.2983 15.5416 9.38086 19.4591 9.38086 24.2916C9.38086 29.124 13.2983 33.0415 18.1308 33.0415Z" fill="#AA7135"/>
<path d="M18.1308 30.5415C20.828 30.5415 23.0145 27.7433 23.0145 24.2916C23.0145 20.8398 20.828 18.0416 18.1308 18.0416C15.4336 18.0416 13.2471 20.8398 13.2471 24.2916C13.2471 27.7433 15.4336 30.5415 18.1308 30.5415Z" fill="#D5B99B"/>
<path d="M18.128 15.5417C15.6778 15.5417 13.4659 16.5516 11.8774 18.1744L24.2452 30.5422C25.8682 28.9538 26.878 26.7419 26.878 24.2917C26.878 19.4593 22.9604 15.5417 18.128 15.5417Z" fill="#A26B34"/>
<path d="M18.1283 18.0419C16.5359 18.0419 15.1355 19.0319 14.2441 20.5409L21.908 28.2048C22.5876 27.131 23.0118 25.7814 23.0118 24.2918C23.0117 20.8401 20.8254 18.0419 18.1283 18.0419Z" fill="#B9A086"/>
<path d="M25.6308 10.5417C28.3922 10.5417 30.6308 8.30311 30.6308 5.54171C30.6308 2.78031 28.3922 0.541748 25.6308 0.541748C22.8694 0.541748 20.6309 2.78031 20.6309 5.54171C20.6309 8.30311 22.8694 10.5417 25.6308 10.5417Z" fill="#AA7135"/>
<path d="M10.6284 10.5417C13.3898 10.5417 15.6283 8.30311 15.6283 5.54171C15.6283 2.78031 13.3898 0.541748 10.6284 0.541748C7.86698 0.541748 5.62842 2.78031 5.62842 5.54171C5.62842 8.30311 7.86698 10.5417 10.6284 10.5417Z" fill="#AA7135"/>
<path d="M10.6284 8.04171C12.0091 8.04171 13.1284 6.92243 13.1284 5.54173C13.1284 4.16103 12.0091 3.04175 10.6284 3.04175C9.2477 3.04175 8.12842 4.16103 8.12842 5.54173C8.12842 6.92243 9.2477 8.04171 10.6284 8.04171Z" fill="#D5B99B"/>
<path d="M25.6308 8.04171C27.0115 8.04171 28.1308 6.92243 28.1308 5.54173C28.1308 4.16103 27.0115 3.04175 25.6308 3.04175C24.2501 3.04175 23.1309 4.16103 23.1309 5.54173C23.1309 6.92243 24.2501 8.04171 25.6308 8.04171Z" fill="#D5B99B"/>
<path d="M18.1308 20.5416C23.3084 20.5416 27.5057 16.3443 27.5057 11.1667C27.5057 5.98905 23.3084 1.79175 18.1308 1.79175C12.9532 1.79175 8.75586 5.98905 8.75586 11.1667C8.75586 16.3443 12.9532 20.5416 18.1308 20.5416Z" fill="#AA7135"/>
<path d="M14.3784 10.5417C15.0688 10.5417 15.6284 9.98209 15.6284 9.29174C15.6284 8.60139 15.0688 8.04175 14.3784 8.04175C13.6881 8.04175 13.1284 8.60139 13.1284 9.29174C13.1284 9.98209 13.6881 10.5417 14.3784 10.5417Z" fill="#231F20"/>
<path d="M21.8809 10.5417C22.5712 10.5417 23.1308 9.98209 23.1308 9.29174C23.1308 8.60139 22.5712 8.04175 21.8809 8.04175C21.1905 8.04175 20.6309 8.60139 20.6309 9.29174C20.6309 9.98209 21.1905 10.5417 21.8809 10.5417Z" fill="#231F20"/>
<path d="M18.1308 19.2916C20.8922 19.2916 23.1308 17.053 23.1308 14.2916C23.1308 11.5302 20.8922 9.29163 18.1308 9.29163C15.3694 9.29163 13.1309 11.5302 13.1309 14.2916C13.1309 17.053 15.3694 19.2916 18.1308 19.2916Z" fill="#D5B99B"/>
<path d="M18.1308 14.2916C18.8212 14.2916 19.3808 13.732 19.3808 13.0416C19.3808 12.3513 18.8212 11.7916 18.1308 11.7916C17.4405 11.7916 16.8809 12.3513 16.8809 13.0416C16.8809 13.732 17.4405 14.2916 18.1308 14.2916Z" fill="#231F20"/>
<path d="M5.6284 21.7916C7.0091 21.7916 8.12838 20.6723 8.12838 19.2916C8.12838 17.9109 7.0091 16.7916 5.6284 16.7916C4.2477 16.7916 3.12842 17.9109 3.12842 19.2916C3.12842 20.6723 4.2477 21.7916 5.6284 21.7916Z" fill="#D5B99B"/>
<path d="M21.9098 19.3766C22.4633 19.1076 23.1074 19.5107 23.1074 20.1261V23.0506C23.1074 23.666 22.4632 24.0691 21.9098 23.8002L18.1074 22.4375V20.7546L21.9098 19.3766Z" fill="#D64231"/>
<path d="M22.6745 23.7707L19.2459 20.3422L18.1074 20.7547V22.4376L21.9099 23.8002C22.1716 23.9273 22.4499 23.8955 22.6745 23.7707Z" fill="#B22F28"/>
<path d="M18.1348 19.9218C17.7051 19.9218 17.3218 20.0957 17.0264 20.3629L14.3049 19.3766C13.7516 19.1076 13.1074 19.5108 13.1074 20.1261V23.0507C13.1074 23.6662 13.7516 24.0693 14.3049 23.8002L17.0368 22.8212C17.3314 23.0835 17.7098 23.2551 18.1348 23.2551C19.0555 23.2551 19.8017 22.509 19.8017 21.5886C19.8017 20.668 19.0556 19.9218 18.1348 19.9218Z" fill="#D64231"/>
<path d="M9.8297 25.6626L8.17706 26.7222C6.29598 25.0517 3.80577 24.6505 2.17578 25.9178C0.268139 27.4009 0.267514 30.5912 2.1743 33.0439C3.31226 34.5079 5.02919 35.5418 6.87824 35.5418C7.51972 35.5418 8.22815 35.3347 8.74526 35.0259L13.9913 31.8776C16.2803 30.523 12.3345 24.1427 9.8297 25.6626Z" fill="#AA7135"/>
<path d="M7.716 28.9161C5.99054 26.6969 3.30345 25.861 1.39276 26.8171C0.342694 28.4712 0.589567 31.0055 2.17432 33.0439C3.89978 35.2631 6.5871 36.0988 8.49755 35.1426C9.54739 33.4887 9.30052 30.9544 7.716 28.9161Z" fill="#D5B99B"/>
<path d="M26.4266 25.6626L28.0792 26.7222C29.9603 25.0517 32.4505 24.6505 34.0805 25.9178C35.9881 27.4009 35.9887 30.5912 34.082 33.0439C32.944 34.5079 31.2271 35.5418 29.378 35.5418C28.7365 35.5418 28.0281 35.3347 27.511 35.0259L22.265 31.8776C19.976 30.523 23.9217 24.1427 26.4266 25.6626Z" fill="#9B6534"/>
<path d="M28.5403 28.9161C30.2658 26.6969 32.9529 25.861 34.8635 26.8171C35.9137 28.4712 35.6668 31.0055 34.082 33.0439C32.3565 35.2631 29.6692 36.0988 27.7588 35.1426C26.709 33.4887 26.9559 30.9544 28.5403 28.9161Z" fill="#B9A086"/>
</svg>
