<svg width="47" height="40" viewBox="0 0 47 40" fill="none" xmlns="http://www.w3.org/2000/svg">
<path d="M18.2222 31.4436L18.2223 31.4436L31.9918 23.9436C31.9918 23.9436 31.9918 23.9436 31.9918 23.9436C32.1151 23.8764 32.1387 23.7898 32.1387 23.75C32.1387 23.7101 32.1151 23.6235 31.9918 23.5563L18.2222 31.4436ZM18.2222 31.4436C18.0881 31.5167 17.9087 31.5191 17.7708 31.4483C17.6403 31.3812 17.6152 31.2906 17.6152 31.25V16.25C17.6152 16.2093 17.6403 16.1187 17.7707 16.0517L18.2222 31.4436ZM18.2223 16.0563L31.9918 23.5563L17.7708 16.0516C17.9088 15.9807 18.0883 15.9834 18.2223 16.0563C18.2223 16.0563 18.2223 16.0563 18.2223 16.0563ZM18.3691 29.0422V30.7256L19.8475 29.9204L29.5637 24.6281L31.176 23.75L29.5637 22.8718L19.8475 17.5795L18.3691 16.7743V18.4577V29.0422Z" stroke="white" stroke-width="2"/>
<path d="M27.0681 6.6734L24.3853 8.5H27.6309H34.0597H34.3657L34.6193 8.32876L42.0243 3.32876L44.7326 1.5H41.4647H34.9746H34.6665L34.4118 1.6734L27.0681 6.6734ZM16.0524 6.6734L13.3696 8.5H16.6152H23.041H23.3491L23.6038 8.3266L30.9476 3.3266L33.6304 1.5H30.3848H23.959H23.6509L23.3962 1.6734L16.0524 6.6734ZM4.97575 6.67124L2.26736 8.5H5.53535H12.0254H12.3335L12.5882 8.3266L19.9319 3.3266L22.6148 1.5H19.3691H12.9403H12.6343L12.3807 1.67124L4.97575 6.67124ZM45.2461 3.73767V1.85584L43.6865 2.9089L38.1144 6.67123L35.406 8.5H38.674H44.2461H45.2461V7.5V3.73767ZM8.88557 3.32877L11.594 1.5H8.32598H2.75391H1.75391V2.5V6.26233V8.14416L3.3135 7.0911L8.88557 3.32877ZM44.2461 38.5H45.2461V37.5V10V9H44.2461H2.75391H1.75391V10V37.5V38.5H2.75391H44.2461ZM1.37695 1H45.6231C45.7542 1 45.8582 1.04864 45.9232 1.10784C45.9875 1.16645 46 1.21937 46 1.25V1.25259V1.256V1.26022V1.26525V1.27108V1.27772V1.28515V1.29339V1.30241V1.31223V1.32283V1.33422V1.34639V1.35933V1.37305V1.38754V1.4028V1.41883V1.43561V1.45316V1.47145V1.4905V1.5103V1.53085V1.55214V1.57417V1.59693V1.62043V1.64465V1.66961V1.69528V1.72168V1.74879V1.77662V1.80516V1.83441V1.86436V1.89501V1.92636V1.95841V1.99115V2.02457V2.05868V2.09348V2.12895V2.1651V2.20192V2.23942V2.27757V2.3164V2.35588V2.39602V2.43681V2.47825V2.52034V2.56308V2.60645V2.65047V2.69512V2.7404V2.7863V2.83284V2.88V2.92777V2.97616V3.02516V3.07478V3.125V3.17582V3.22724V3.27926V3.33187V3.38507V3.43886V3.49324V3.54819V3.60372V3.65983V3.71651V3.77376V3.83157V3.88994V3.94887V4.00836V4.0684V4.12899V4.19012V4.2518V4.31402V4.37677V4.44006V4.50388V4.56822V4.63309V4.69848V4.76439V4.83081V4.89774V4.96518V5.03312V5.10157V5.17052V5.23996V5.30989V5.38031V5.45122V5.5226V5.59447V5.66682V5.73964V5.81292V5.88668V5.9609V6.03558V6.11071V6.1863V6.26234V6.33883V6.41576V6.49314V6.57095V6.6492V6.72788V6.80699V6.88652V6.96648V7.04685V7.12764V7.20885V7.29046V7.37248V7.45491V7.53773V7.62095V7.70457V7.78857V7.87297V7.95774V8.0429V8.12844V8.21435V8.30063V8.38728V8.4743V8.56168V8.64942V8.73751V8.82595V8.91475V9.00389V9.09338V9.1832V9.27336V9.36386V9.45468V9.54584V9.63731V9.72911V9.82123V9.91366V10.0064V10.0994V10.1928V10.2865V10.3804V10.4747V10.5692V10.664V10.7592V10.8546V10.9502V11.0462V11.1424V11.2389V11.3357V11.4327V11.53V11.6276V11.7254V11.8234V11.9217V12.0203V12.1191V12.2181V12.3174V12.4169V12.5166V12.6165V12.7167V12.8171V12.9177V13.0185V13.1196V13.2208V13.3222V13.4239V13.5257V13.6278V13.73V13.8324V13.935V14.0378V14.1407V14.2439V14.3472V14.4506V14.5543V14.6581V14.762V14.8662V14.9704V15.0748V15.1794V15.2841V15.389V15.494V15.5991V15.7043V15.8097V15.9152V16.0208V16.1266V16.2324V16.3384V16.4445V16.5506V16.6569V16.7633V16.8698V16.9764V17.083V17.1898V17.2966V17.4035V17.5105V17.6176V17.7247V17.8319V17.9392V18.0465V18.1539V18.2613V18.3688V18.4763V18.5839V18.6915V18.7992V18.9069V19.0146V19.1224V19.2301V19.3379V19.4458V19.5536V19.6615V19.7693V19.8772V19.9851V20.093V20.2009V20.3087V20.4166V20.5244V20.6323V20.7401V20.8479V20.9556V21.0634V21.1711V21.2788V21.3864V21.494V21.6016V21.7091V21.8165V21.9239V22.0313V22.1386V22.2458V22.353V22.4601V22.5671V22.674V22.7809V22.8877V22.9944V23.101V23.2075V23.3139V23.4203V23.5265V23.6326V23.7386V23.8445V23.9503V24.056V24.1616V24.267V24.3723V24.4775V24.5825V24.6874V24.7922V24.8968V25.0013V25.1056V25.2098V25.3139V25.4177V25.5214V25.625V25.7284V25.8316V25.9346V26.0375V26.1401V26.2426V26.3449V26.4471V26.549V26.6507V26.7522V26.8536V26.9547V27.0556V27.1563V27.2568V27.3571V27.4571V27.557V27.6565V27.7559V27.855V27.9539V28.0526V28.151V28.2492V28.3471V28.4448V28.5422V28.6393V28.7362V28.8328V28.9292V29.0252V29.121V29.2166V29.3118V29.4068V29.5014V29.5958V29.6899V29.7837V29.8772V29.9704V30.0632V30.1558V30.2481V30.34V30.4316V30.5229V30.6139V30.7045V30.7948V30.8848V30.9744V31.0637V31.1527V31.2413V31.3295V31.4174V31.505V31.5921V31.679V31.7654V31.8515V31.9372V32.0225V32.1075V32.192V32.2762V32.36V32.4434V32.5264V32.609V32.6912V32.773V32.8544V32.9353V33.0159V33.096V33.1757V33.255V33.3339V33.4123V33.4904V33.5679V33.6451V33.7217V33.798V33.8738V33.9491V34.024V34.0984V34.1724V34.2459V34.3189V34.3914V34.4635V34.5351V34.6062V34.6769V34.747V34.8167V34.8858V34.9545V35.0227V35.0903V35.1575V35.2241V35.2903V35.3559V35.421V35.4856V35.5496V35.6131V35.6761V35.7386V35.8005V35.8619V35.9227V35.983V36.0427V36.1019V36.1605V36.2186V36.2761V36.333V36.3893V36.4451V36.5003V36.555V36.609V36.6625V36.7154V36.7676V36.8193V36.8704V36.9209V36.9708V37.02V37.0687V37.1168V37.1642V37.211V37.2572V37.3027V37.3477V37.392V37.4356V37.4786V37.521V37.5627V37.6038V37.6442V37.684V37.7231V37.7616V37.7994V37.8365V37.8729V37.9087V37.9438V37.9782V38.0119V38.045V38.0773V38.109V38.1399V38.1702V38.1998V38.2286V38.2568V38.2842V38.3109V38.3369V38.3622V38.3867V38.4105V38.4336V38.456V38.4776V38.4985V38.5186V38.538V38.5566V38.5745V38.5916V38.6079V38.6235V38.6384V38.6524V38.6657V38.6782V38.69V38.7009V38.7111V38.7205V38.729V38.7368V38.7438V38.75C46 38.7858 45.9861 38.8376 45.9245 38.8935C45.8614 38.9508 45.7575 39 45.6231 39H1.37695C1.24248 39 1.13859 38.9508 1.07546 38.8935C1.01391 38.8376 1 38.7858 1 38.75V1.25C1 1.21419 1.01391 1.16242 1.07546 1.10654C1.13859 1.04923 1.24248 1 1.37695 1Z" stroke="white" stroke-width="2"/>
</svg>
