<svg width="80" height="80" viewBox="0 0 80 80" fill="none" xmlns="http://www.w3.org/2000/svg">
<path d="M40 0C17.9444 0 0 17.9444 0 40C0 62.0556 17.9444 80 40 80C62.0556 80 80 62.0556 80 40C80 17.9444 62.0557 0 40 0ZM40 76.5218C19.8608 76.5218 3.47821 60.1392 3.47821 40C3.47821 19.8608 19.8608 3.47821 40 3.47821C60.1392 3.47821 76.5218 19.8608 76.5218 40C76.5218 60.1392 60.1392 76.5218 40 76.5218Z" fill="#CCAB4E"/>
<path d="M56.8834 54.4244L41.7391 39.28V12.174C41.7391 11.214 40.9599 10.4348 39.9999 10.4348C39.0399 10.4348 38.2607 11.214 38.2607 12.174V40.0001C38.2607 40.4627 38.4451 40.9045 38.7686 41.2314L54.4208 56.8836C54.7617 57.2209 55.2068 57.3915 55.6521 57.3915C56.0974 57.3915 56.5425 57.2211 56.8834 56.8836C57.5616 56.2052 57.5616 55.1027 56.8834 54.4244Z" fill="#CCAB4E"/>
</svg>
