<svg width="72" height="80" viewBox="0 0 72 80" fill="none" xmlns="http://www.w3.org/2000/svg">
<path d="M66.6759 5.65312C63.1764 2.02156 58.4909 0.0140625 53.4831 0C53.4657 0 53.4487 0 53.4314 0C48.0123 0 42.4068 2.36531 38.4273 6.33375C37.4964 7.26219 36.6781 8.25406 35.979 9.29453C35.28 8.25406 34.4617 7.26219 33.5307 6.33375C29.5515 2.36516 23.9467 0 18.5271 0C18.5103 0 18.4925 0 18.4756 0C13.4676 0.0140625 8.78215 2.02156 5.28262 5.65312C1.75793 9.31063 -0.16332 14.3272 0.0108991 19.4167C0.265743 26.8544 7.95699 41.5277 10.9684 47.0044C7.97262 50.2273 1.94074 57.6848 1.94074 65.4837V67.3472L23.0964 77.1536C27.1901 79.0512 31.5848 80 35.9793 80C40.3739 80 44.7687 79.0512 48.8623 77.1536L70.0179 67.3472V65.4837C70.0179 57.6848 63.986 50.2273 60.9903 47.0044C64.0017 41.5275 71.6929 26.8544 71.9478 19.4167C72.1218 14.3272 70.2006 9.31063 66.6759 5.65312ZM66.1159 19.217C65.9043 25.3952 57.9054 40.6778 54.8412 46.0453L53.6915 48.0592L55.3939 49.6338C57.6104 51.6842 63.0339 57.8409 64.0256 63.6933L46.4082 71.8597C39.7806 74.9319 32.1781 74.9319 25.5506 71.8597L7.93309 63.6931C8.37965 61.0523 9.77168 58.0537 12.025 54.9081C14.2589 51.7887 16.5445 49.6525 16.565 49.6338L18.2675 48.0591L17.1173 46.0452C14.0531 40.6798 6.05434 25.4012 5.84262 19.2172C5.72027 15.6453 7.01371 12.2661 9.48434 9.70234C11.8784 7.21813 15.0771 5.84484 18.4917 5.83531C18.5039 5.83531 18.5157 5.83531 18.5282 5.83531C22.4357 5.83531 26.5014 7.56469 29.4104 10.4658C30.9811 12.0319 32.0776 13.8288 32.6361 15.6984C30.7717 14.6267 28.7987 13.7777 27.2262 13.7777C22.9362 13.7777 19.4459 17.2678 19.4459 21.558C19.4459 25.8481 22.9361 29.3383 27.2262 29.3383C29.8162 29.3383 33.4911 27.0366 35.979 25.2273C38.467 27.0363 42.1418 29.3383 44.7318 29.3383C49.0218 29.3383 52.5121 25.8481 52.5121 21.558C52.5121 17.2678 49.022 13.7777 44.7318 13.7777C43.1592 13.7777 41.1862 14.6264 39.322 15.6984C39.88 13.8289 40.9768 12.032 42.5475 10.4658C45.4568 7.56453 49.5223 5.83531 53.43 5.83531C53.4421 5.83531 53.4545 5.83531 53.4667 5.83531C56.8812 5.84469 60.08 7.21813 62.474 9.70234C64.9448 12.2661 66.2382 15.6452 66.1159 19.217ZM30.9989 21.5577C29.3259 22.6467 27.83 23.4352 27.204 23.5027C26.1418 23.4906 25.2814 22.6227 25.2814 21.5577C25.2814 20.4927 26.1418 19.6247 27.204 19.6127C27.83 19.6803 29.3259 20.4686 30.9989 21.5577ZM40.9596 21.5577C42.6326 20.4686 44.1286 19.6802 44.7545 19.6127C45.8167 19.6247 46.6771 20.4927 46.6771 21.5577C46.6771 22.6227 45.8167 23.4906 44.7545 23.5027C44.1286 23.4353 42.6325 22.6469 40.9596 21.5577Z" fill="#CCAB4E"/>
<path d="M35.9792 41.0077C37.5906 41.0077 38.8968 39.7014 38.8968 38.09C38.8968 36.4786 37.5906 35.1724 35.9792 35.1724C34.3678 35.1724 33.0615 36.4786 33.0615 38.09C33.0615 39.7014 34.3678 41.0077 35.9792 41.0077Z" fill="#CCAB4E"/>
<path d="M35.9792 52.6781C37.5906 52.6781 38.8968 51.3718 38.8968 49.7604C38.8968 48.1491 37.5906 46.8428 35.9792 46.8428C34.3678 46.8428 33.0615 48.1491 33.0615 49.7604C33.0615 51.3718 34.3678 52.6781 35.9792 52.6781Z" fill="#CCAB4E"/>
<path d="M35.9792 64.3485C37.5906 64.3485 38.8968 63.0422 38.8968 61.4308C38.8968 59.8195 37.5906 58.5132 35.9792 58.5132C34.3678 58.5132 33.0615 59.8195 33.0615 61.4308C33.0615 63.0422 34.3678 64.3485 35.9792 64.3485Z" fill="#CCAB4E"/>
</svg>
