<svg width="40" height="40" viewBox="0 0 40 40" fill="none" xmlns="http://www.w3.org/2000/svg">
<g clip-path="url(#clip0)">
<path d="M39.4483 7.08813L20.1432 0.0221189C20.0631 -0.00737297 19.9728 -0.00737297 19.8904 0.0221189L0.551524 7.07068C0.40587 7.12364 0.30957 7.26328 0.30957 7.41736L0.363739 31.7837C0.363739 31.9341 0.455224 32.0695 0.595461 32.1243L19.2819 39.587V39.6303C19.2819 39.7525 19.3433 39.8668 19.4444 39.936C19.5455 40.0029 19.6725 40.0173 19.7874 39.9734L20.0192 39.8807L20.2509 39.9734C20.2942 39.9902 20.3412 40.0005 20.3875 40.0005C20.4603 40.0005 20.532 39.9782 20.5946 39.9373C20.6957 39.868 20.7571 39.7537 20.7571 39.6315V39.5882L39.4435 32.1255C39.5831 32.0695 39.6752 31.9353 39.6752 31.7837L39.6914 7.43601C39.6896 7.27953 39.5939 7.1423 39.4483 7.08813ZM19.2813 37.9986L1.83713 31.0337V9.0358L19.2807 16.0007L19.2813 37.9986ZM20.018 14.7091L2.87897 7.86395L20.0204 1.54546L37.3152 7.80135L20.018 14.7091ZM38.1982 31.0337L20.7553 37.9986V16.0007L38.1982 9.0358V31.0337ZM8.71415 22.8837C8.71415 21.8654 9.52668 21.3622 10.5294 21.76C11.5315 22.1591 12.3447 23.3087 12.3447 24.3294C12.3441 25.3478 11.5315 25.8516 10.5288 25.4531C9.52608 25.0535 8.71355 23.9027 8.71415 22.8837ZM3.61025 15.2724C3.61025 14.2534 4.42339 13.7503 5.42611 14.1493C6.42883 14.5478 7.24136 15.6973 7.24136 16.7175C7.24136 17.7377 6.42823 18.2397 5.42551 17.8412C4.42218 17.4416 3.61025 16.292 3.61025 15.2724ZM13.8187 19.3345C13.8187 18.3149 14.6318 17.8117 15.6345 18.2108C16.6372 18.6098 17.4498 19.7594 17.4498 20.779C17.4498 21.7992 16.636 22.3017 15.6339 21.9027C14.6312 21.5036 13.8187 20.3541 13.8187 19.3345ZM3.60845 25.9425C3.60905 24.9241 4.42158 24.4203 5.4243 24.8188C6.42703 25.2184 7.23956 26.3674 7.23956 27.3882C7.23956 28.4077 6.42642 28.9109 5.4237 28.5119C4.42038 28.1128 3.60845 26.962 3.60845 25.9425ZM13.8174 30.0051C13.818 28.9849 14.6306 28.483 15.6333 28.8814C16.636 29.2799 17.4486 30.4294 17.4486 31.4508C17.4486 32.4692 16.6354 32.9724 15.6327 32.5739C14.6294 32.1749 13.8174 31.0241 13.8174 30.0051ZM16.7383 7.65028C16.2773 8.38938 14.8069 8.90639 13.4509 8.80407C12.0949 8.70236 11.3684 8.02104 11.8289 7.28254C12.2893 6.54403 13.7591 6.02763 15.1157 6.12934C16.4705 6.23046 17.1976 6.91178 16.7383 7.65028ZM26.4394 8.37855C25.9795 9.11825 24.5085 9.63406 23.1531 9.53234C21.7959 9.43063 21.0706 8.7487 21.5305 8.0108C21.9903 7.2711 23.4619 6.75529 24.8179 6.85641C26.1727 6.95933 26.8998 7.64065 26.4394 8.37855ZM28.3124 25.476C27.6858 24.7068 27.8526 23.2461 28.685 22.2132C29.5161 21.1804 30.6976 20.968 31.3218 21.7366C31.9483 22.5046 31.7816 23.9659 30.9504 24.9987C30.1192 26.0315 28.9377 26.244 28.3124 25.476Z" fill="white"/>
</g>
<defs>
<clipPath id="clip0">
<rect width="40" height="40.0006" fill="white"/>
</clipPath>
</defs>
</svg>
