<svg width="20" height="20" viewBox="0 0 20 20" fill="none" xmlns="http://www.w3.org/2000/svg">
<path d="M10 0C4.486 0 0 4.48582 0 9.99945C0 15.5132 4.486 19.999 10 19.999C15.514 19.999 20 15.5132 20 9.99945C20 4.48582 15.514 0 10 0ZM10 18.1808C5.48855 18.1808 1.81818 14.5107 1.81818 9.99952C1.81818 5.4883 5.48855 1.81818 10 1.81818C14.5115 1.81818 18.1818 5.4883 18.1818 9.99945C18.1818 14.5108 14.5115 18.1808 10 18.1808Z" fill="#C4C4C4"/>
<path d="M9.99991 7.87891C9.49785 7.87891 9.09082 8.28594 9.09082 8.788V14.8476C9.09082 15.3496 9.49785 15.7567 9.99991 15.7567C10.502 15.7567 10.909 15.3496 10.909 14.8476V8.788C10.909 8.286 10.502 7.87891 9.99991 7.87891Z" fill="#C4C4C4"/>
<path d="M9.99991 4.24219C9.76052 4.24219 9.52652 4.33916 9.35688 4.50825C9.18779 4.67734 9.09082 4.91188 9.09082 5.15128C9.09082 5.39067 9.18779 5.62461 9.35688 5.79431C9.52597 5.9634 9.76052 6.06037 9.99991 6.06037C10.2393 6.06037 10.4732 5.9634 10.6429 5.79431C10.812 5.62461 10.909 5.39067 10.909 5.15128C10.909 4.91188 10.812 4.67734 10.6429 4.50825C10.4732 4.3391 10.2393 4.24219 9.99991 4.24219Z" fill="#C4C4C4"/>
</svg>
