<svg width="10" height="10" viewBox="0 0 10 10" fill="none" xmlns="http://www.w3.org/2000/svg">
<path d="M1.04166 4.375C0.4675 4.375 0 4.8425 0 5.41666V8.75C0 9.32416 0.4675 9.79166 1.04166 9.79166H2.29166C2.52625 9.79166 2.74207 9.7125 2.91666 9.58082V4.375H1.04166Z" fill="#818183"/>
<path d="M10.0002 5.93766C10.0002 5.68725 9.901 5.45391 9.72891 5.28182C9.9235 5.06891 10.0227 4.78348 9.99557 4.48641C9.94682 3.95682 9.46973 3.54182 8.90891 3.54182H6.33516C6.46266 3.15473 6.66682 2.44516 6.66682 1.87516C6.66682 0.971406 5.89891 0.208496 5.41682 0.208496C4.98391 0.208496 4.67473 0.452246 4.66141 0.462246C4.61225 0.501836 4.5835 0.561836 4.5835 0.625156V2.03807L3.3835 4.63766L3.3335 4.66307V9.12891C3.67266 9.28891 4.10182 9.37516 4.37516 9.37516H8.19975C8.6535 9.37516 9.05059 9.06932 9.14391 8.64725C9.19182 8.43016 9.16391 8.21141 9.0685 8.02141C9.37641 7.86641 9.5835 7.54932 9.5835 7.18766C9.5835 7.04016 9.54975 6.89891 9.48559 6.771C9.7935 6.616 10.0002 6.29891 10.0002 5.93766Z" fill="#818183"/>
</svg>
