<?xml version="1.0" encoding="utf-8"?>
<!-- Generator: Adobe Illustrator 25.2.1, SVG Export Plug-In . SVG Version: 6.00 Build 0)  -->
<svg version="1.1" id="Capa_1" xmlns="http://www.w3.org/2000/svg" xmlns:xlink="http://www.w3.org/1999/xlink" x="0px" y="0px"
	 viewBox="0 0 512 512" style="enable-background:new 0 0 512 512;" xml:space="preserve">
<style type="text/css">
	.st0{fill:#FFFFFF;}
</style>
<g>
	<path class="st0" d="M467,242H45c-24.8,0-45,20.2-45,45v180c0,24.8,20.2,45,45,45h422c24.8,0,45-20.2,45-45V287
		C512,262.2,491.8,242,467,242L467,242z M482,467c0,8.3-6.7,15-15,15H45c-8.3,0-15-6.7-15-15V287c0-8.3,6.7-15,15-15h422
		c8.3,0,15,6.7,15,15V467z"/>
	<path class="st0" d="M136,422H91V317c0-8.3-6.7-15-15-15s-15,6.7-15,15v120c0,8.3,6.7,15,15,15h60c8.3,0,15-6.7,15-15
		S144.3,422,136,422z"/>
	<path class="st0" d="M196,302c-8.3,0-15,6.7-15,15v120c0,8.3,6.7,15,15,15s15-6.7,15-15V317C211,308.7,204.3,302,196,302z"/>
	<path class="st0" d="M436,332c8.3,0,15-6.7,15-15s-6.7-15-15-15h-60c-8.3,0-15,6.7-15,15v120c0,8.3,6.7,15,15,15h60
		c8.3,0,15-6.7,15-15s-6.7-15-15-15h-45v-30h45c8.3,0,15-6.7,15-15s-6.7-15-15-15h-45v-30H436z"/>
	<path class="st0" d="M319.6,302.5c-8-2-16.2,2.9-18.2,10.9L286,375.2l-15.4-61.8c-2-8-10.2-12.9-18.2-10.9
		c-8,2-12.9,10.2-10.9,18.2l30,120c1.7,6.7,7.7,11.4,14.6,11.4s12.9-4.7,14.6-11.4l30-120C332.6,312.6,327.7,304.5,319.6,302.5z"/>
	<path class="st0" d="M145,207c6.6-5,8-14.4,3-21c-35.8-47.7-35.8-114.3,0-162c5-6.6,3.6-16-3-21c-6.6-5-16-3.6-21,3
		c-43.8,58.3-43.8,139.7,0,198C129,210.6,138.4,212,145,207L145,207z"/>
	<path class="st0" d="M367,207c6.6,5,16,3.6,21-3c43.8-58.3,43.8-139.7,0-198c-5-6.6-14.4-8-21-3c-6.6,5-8,14.4-3,21
		c35.8,47.7,35.8,114.3,0,162C359,192.6,360.4,202,367,207L367,207z"/>
	<path class="st0" d="M198.9,176.2c6.2-5.5,6.7-15,1.2-21.2c-25.5-28.5-25.5-71.5,0-100c5.5-6.2,5-15.7-1.2-21.2
		c-6.2-5.5-15.7-5-21.2,1.2C160.5,54.2,151,79.1,151,105s9.5,50.8,26.7,70C183.3,181.2,192.7,181.7,198.9,176.2L198.9,176.2z"/>
	<path class="st0" d="M313.1,176.2c6.2,5.6,15.7,5,21.2-1.2c17.2-19.2,26.7-44.1,26.7-70s-9.5-50.8-26.7-70
		c-5.5-6.2-15-6.7-21.2-1.2c-6.2,5.5-6.7,15-1.2,21.2c25.5,28.5,25.5,71.5,0,100C306.4,161.2,306.9,170.6,313.1,176.2L313.1,176.2z"
		/>
	<path class="st0" d="M256,150c24.8,0,45-20.2,45-45s-20.2-45-45-45s-45,20.2-45,45S231.2,150,256,150z M256,90c8.3,0,15,6.7,15,15
		s-6.7,15-15,15s-15-6.7-15-15S247.7,90,256,90z"/>
</g>
</svg>
