<svg width="24" height="21" viewBox="0 0 24 21" fill="none" xmlns="http://www.w3.org/2000/svg">
<path d="M2.09843 18.9115C2.09843 19.6838 2.72239 20.3078 3.4947 20.3078H10.4761V13.3264H2.09843V18.9115ZM13.2686 20.3078H20.25C21.0223 20.3078 21.6463 19.6838 21.6463 18.9115V13.3264H13.2686V20.3078ZM21.6463 6.34499H19.8093C20.0799 5.81703 20.25 5.23234 20.25 4.59965C20.25 2.48342 18.5265 0.759888 16.4103 0.759888C14.5951 0.759888 13.4214 1.68928 11.916 3.74007C10.4106 1.68928 9.23689 0.759888 7.42173 0.759888C5.3055 0.759888 3.58197 2.48342 3.58197 4.59965C3.58197 5.23234 3.74778 5.81703 4.02267 6.34499H2.09843C1.32611 6.34499 0.702148 6.96896 0.702148 7.74127V11.232C0.702148 11.6159 1.01631 11.9301 1.40029 11.9301H22.3444C22.7284 11.9301 23.0426 11.6159 23.0426 11.232V7.74127C23.0426 6.96896 22.4186 6.34499 21.6463 6.34499ZM7.41737 6.34499C6.45306 6.34499 5.67202 5.56395 5.67202 4.59965C5.67202 3.63535 6.45306 2.8543 7.41737 2.8543C8.28568 2.8543 8.92709 2.99829 11.1742 6.34499H7.41737ZM16.4103 6.34499H12.6534C14.8962 3.00702 15.5201 2.8543 16.4103 2.8543C17.3746 2.8543 18.1556 3.63535 18.1556 4.59965C18.1556 5.56395 17.3746 6.34499 16.4103 6.34499Z" fill="#12EB90"/>
</svg>
