<svg width="50" height="44" viewBox="0 0 50 44" fill="none" xmlns="http://www.w3.org/2000/svg">
<path d="M7.8125 10.5H45.0391C47.2772 10.5 49 12.2074 49 14.1875V39.1875C49 41.1676 47.2772 42.875 45.0391 42.875H6.25C3.35014 42.875 1 40.5249 1 37.625V6.375C1 3.47514 3.35014 1.125 6.25 1.125H42.1875C44.2241 1.125 45.875 2.77592 45.875 4.8125C45.875 5.1235 45.6235 5.375 45.3125 5.375H7.8125C6.39693 5.375 5.25 6.52193 5.25 7.9375C5.25 9.35307 6.39693 10.5 7.8125 10.5ZM36.5 26.6875C36.5 28.9654 38.3471 30.8125 40.625 30.8125C42.9029 30.8125 44.75 28.9654 44.75 26.6875C44.75 24.4096 42.9029 22.5625 40.625 22.5625C38.3471 22.5625 36.5 24.4096 36.5 26.6875Z" stroke="white" stroke-width="2"/>
</svg>
