<svg width="11" height="11" viewBox="0 0 11 11" fill="none" xmlns="http://www.w3.org/2000/svg">
<path d="M6.16675 3.33333H5.16675V4.83333H3.66675V5.83333H5.16675V7.33333H6.16675V5.83333H7.66675V4.83333H6.16675V3.33333ZM5.66675 0.333328C2.91675 0.333328 0.666748 2.58333 0.666748 5.33333C0.666748 8.08333 2.91675 10.3333 5.66675 10.3333C8.41675 10.3333 10.6667 8.08333 10.6667 5.33333C10.6667 2.58333 8.41675 0.333328 5.66675 0.333328ZM5.66675 9.33333C3.46675 9.33333 1.66675 7.53333 1.66675 5.33333C1.66675 3.13333 3.46675 1.33333 5.66675 1.33333C7.86675 1.33333 9.66675 3.13333 9.66675 5.33333C9.66675 7.53333 7.86675 9.33333 5.66675 9.33333Z" fill="#575759"/>
</svg>
