<svg width="193" height="171" viewBox="0 0 193 171" fill="none" xmlns="http://www.w3.org/2000/svg">
<g filter="url(#filter0_d)">
<path d="M96.5001 0.0587158C66.2773 0.0587158 41.6924 24.6578 41.6924 54.8929C41.6924 85.1279 66.2773 109.727 96.5001 109.727C126.723 109.727 151.308 85.1279 151.308 54.8929C151.308 24.6578 126.723 0.0587158 96.5001 0.0587158ZM96.5001 105.158C68.7974 105.158 46.2596 82.609 46.2596 54.8929C46.2596 27.1768 68.7974 4.62816 96.5001 4.62816C124.203 4.62816 146.741 27.1768 146.741 54.8929C146.741 82.609 124.203 105.158 96.5001 105.158Z" fill="white"/>
<path d="M118.289 52.9715L86.3176 32.4087C85.6173 31.9514 84.7119 31.9267 83.9893 32.3239C83.2533 32.7255 82.7983 33.4932 82.7983 34.3298V75.4554C82.7983 76.2921 83.2533 77.0598 83.9893 77.4614C84.3282 77.6467 84.7074 77.7403 85.0821 77.7403C85.5103 77.7403 85.9429 77.6197 86.3176 77.3766L118.289 56.8138C118.94 56.3944 119.337 55.6691 119.337 54.8926C119.337 54.1162 118.94 53.3911 118.289 52.9715ZM87.3656 71.2696V38.5156L112.829 54.8926L87.3656 71.2696Z" fill="white"/>
</g>
<path d="M6.39069 160V125.872C9.04669 125.616 11.6227 125.488 14.1187 125.488C17.4787 125.488 20.1667 126.272 22.1827 127.84C24.2307 129.408 25.2547 131.776 25.2547 134.944C25.2547 138.08 23.8627 140.672 21.0787 142.72C18.3267 144.736 15.0307 145.744 11.1907 145.744C11.0307 145.744 10.8547 145.744 10.6627 145.744V144.16C10.7907 144.16 10.9027 144.16 10.9987 144.16C14.1667 144.16 16.9187 143.328 19.2547 141.664C21.5907 140 22.7587 137.84 22.7587 135.184C22.7587 132.496 21.9427 130.56 20.3107 129.376C18.6787 128.16 16.4867 127.552 13.7347 127.552C12.2947 127.552 10.6147 127.616 8.69469 127.744V160H6.39069ZM33.7053 160V128.992C36.4573 128.768 38.7933 128.656 40.7133 128.656C43.6573 128.656 46.0893 129.424 48.0093 130.96C49.9293 132.464 50.8893 134.624 50.8893 137.44C50.8893 139.328 50.3453 141.072 49.2573 142.672C48.1693 144.272 46.9373 145.568 45.5613 146.56C49.3693 151.616 51.7213 154.64 52.6173 155.632C54.4413 157.52 56.4253 158.592 58.5693 158.848L58.5213 160.336C56.7293 160.304 55.2733 160.048 54.1533 159.568C53.0333 159.056 51.9133 158.208 50.7933 157.024C49.7053 155.84 47.2893 152.656 43.5453 147.472C40.9533 147.472 38.4093 147.392 35.9133 147.232V160H33.7053ZM42.3453 145.648C43.5933 145.648 44.9373 144.816 46.3773 143.152C47.8173 141.488 48.5373 139.552 48.5373 137.344C48.5373 135.136 47.7853 133.456 46.2813 132.304C44.7773 131.152 42.8253 130.576 40.4253 130.576C39.1453 130.576 37.6413 130.64 35.9133 130.768V145.408C38.2173 145.568 40.3613 145.648 42.3453 145.648ZM62.9084 160V128.848H77.4524V130.768H65.1164V142.096H76.2524V143.968H65.1164V157.984H77.9324V160H62.9084ZM96.9438 153.472L107.36 128.848H109.664L96.2718 160.192H94.9758L81.5838 128.848H83.9838L95.7438 156.544C95.9038 156.064 96.3038 155.04 96.9438 153.472ZM116.018 160V128.848H118.226V160H116.018ZM129.752 160V128.848H144.296V130.768H131.96V142.096H143.096V143.968H131.96V157.984H144.776V160H129.752ZM161.532 152.416L170.508 129.472H171.9L179.724 152.56L180.876 156.448C180.972 155.84 181.372 154.56 182.076 152.608L190.044 128.848H192.348L181.5 160.192H180.204C174.86 144.864 172.092 136.896 171.9 136.288C171.612 135.424 171.324 134.576 171.036 133.744C170.876 134.288 170.444 135.424 169.74 137.152L160.668 160.192H159.372L148.428 128.848H150.876L158.796 152.224C159.244 153.504 159.66 154.928 160.044 156.496C160.204 155.856 160.7 154.496 161.532 152.416Z" fill="white"/>
<defs>
<filter id="filter0_d" x="37.6924" y="0.0587158" width="117.615" height="117.668" filterUnits="userSpaceOnUse" color-interpolation-filters="sRGB">
<feFlood flood-opacity="0" result="BackgroundImageFix"/>
<feColorMatrix in="SourceAlpha" type="matrix" values="0 0 0 0 0 0 0 0 0 0 0 0 0 0 0 0 0 0 127 0"/>
<feOffset dy="4"/>
<feGaussianBlur stdDeviation="2"/>
<feColorMatrix type="matrix" values="0 0 0 0 0 0 0 0 0 0 0 0 0 0 0 0 0 0 0.25 0"/>
<feBlend mode="normal" in2="BackgroundImageFix" result="effect1_dropShadow"/>
<feBlend mode="normal" in="SourceGraphic" in2="effect1_dropShadow" result="shape"/>
</filter>
</defs>
</svg>
