<svg width="78" height="15" viewBox="0 0 78 15" fill="none" xmlns="http://www.w3.org/2000/svg">
<path d="M0 3C0 1.34315 1.34315 0 3 0H75C76.6569 0 78 1.34315 78 3V12C78 13.6569 76.6569 15 75 15H3C1.34315 15 0 13.6569 0 12V3Z" fill="#EE403F"/>
<path d="M0 3C0 1.34315 1.34315 0 3 0H13.5689C15.6913 0 17.1426 2.14358 16.3543 4.11417L12.7543 13.1142C12.2987 14.2531 11.1956 15 9.9689 15H3C1.34315 15 0 13.6569 0 12V3Z" fill="black"/>
<g filter="url(#filter0_d)">
<path d="M10.917 4.53515C10.8655 4.49882 10.8018 4.4974 10.7492 4.53152L8.91367 5.72443V5.00867C8.91314 4.45185 8.53403 4.00063 8.06621 4H3.84746C3.37963 4.00063 3.00053 4.45185 3 5.00867V8.99133C3.00053 9.54815 3.37963 9.99937 3.84746 10H8.06621C8.53403 9.99937 8.91314 9.54815 8.91367 8.99133V8.28857L10.7493 9.48148C10.8018 9.5156 10.8655 9.51426 10.917 9.47794C10.9685 9.44153 11 9.37557 11 9.30441V4.70859C11 4.63735 10.9684 4.57147 10.917 4.53515ZM8.57455 8.99141C8.57429 9.32553 8.3468 9.59622 8.06608 9.59661H3.84746C3.56674 9.59622 3.33931 9.32553 3.33898 8.99141V5.00867C3.33931 4.67463 3.56674 4.40386 3.84746 4.40347H8.06621C8.34686 4.40386 8.57435 4.67463 8.57468 5.00867L8.57455 8.99141ZM10.661 8.96446L8.91367 7.82892V6.18408L10.661 5.04862V8.96446Z" fill="white"/>
</g>
<path d="M28.5609 10.46C28.4409 10.54 28.2776 10.63 28.0709 10.73C27.8643 10.83 27.6209 10.9167 27.3409 10.99C27.0676 11.0567 26.7676 11.0867 26.4409 11.08C25.8743 11.0733 25.3676 10.9733 24.9209 10.78C24.4743 10.5867 24.0909 10.3233 23.7709 9.99C23.4576 9.65 23.2176 9.26333 23.0509 8.83C22.8843 8.39667 22.8009 7.93333 22.8009 7.44C22.8009 6.9 22.8876 6.40333 23.0609 5.95C23.2409 5.49 23.4909 5.09333 23.8109 4.76C24.1309 4.42 24.5076 4.15667 24.9409 3.97C25.3809 3.78333 25.8609 3.69 26.3809 3.69C26.8143 3.69 27.2076 3.75 27.5609 3.87C27.9143 3.98333 28.2176 4.11667 28.4709 4.27L28.0809 5.18C27.8809 5.04667 27.6376 4.92 27.3509 4.8C27.0643 4.68 26.7509 4.62 26.4109 4.62C26.0576 4.62 25.7243 4.69333 25.4109 4.84C25.0976 4.98 24.8209 5.17667 24.5809 5.43C24.3409 5.67667 24.1509 5.97 24.0109 6.31C23.8776 6.64333 23.8109 7.00333 23.8109 7.39C23.8109 7.91 23.9176 8.38 24.1309 8.8C24.3509 9.21333 24.6576 9.54 25.0509 9.78C25.4509 10.02 25.9176 10.14 26.4509 10.14C26.8243 10.14 27.1509 10.0867 27.4309 9.98C27.7176 9.86667 27.9543 9.73667 28.1409 9.59L28.5609 10.46ZM31.6943 11.1C31.301 11.1 30.9443 11.0167 30.6243 10.85C30.311 10.6833 30.061 10.44 29.8743 10.12C29.6943 9.79333 29.6043 9.39667 29.6043 8.93C29.6043 8.46333 29.6976 8.06333 29.8843 7.73C30.0776 7.39667 30.3343 7.14 30.6543 6.96C30.981 6.78 31.3376 6.69 31.7243 6.69C32.0976 6.69 32.4143 6.77 32.6743 6.93C32.9343 7.09 33.1376 7.28333 33.2843 7.51L33.3543 6.86H34.2143V11H33.2843V10.32C33.2043 10.4267 33.0876 10.54 32.9343 10.66C32.7876 10.78 32.6076 10.8833 32.3943 10.97C32.1876 11.0567 31.9543 11.1 31.6943 11.1ZM31.9443 10.33C32.2843 10.33 32.5743 10.2367 32.8143 10.05C33.0543 9.85667 33.211 9.59667 33.2843 9.27V8.45C33.2043 8.16333 33.0376 7.92667 32.7843 7.74C32.531 7.55333 32.241 7.46 31.9143 7.46C31.661 7.46 31.431 7.52 31.2243 7.64C31.0176 7.76 30.851 7.92667 30.7243 8.14C30.6043 8.35333 30.5443 8.6 30.5443 8.88C30.5443 9.15333 30.6076 9.4 30.7343 9.62C30.861 9.83333 31.031 10.0067 31.2443 10.14C31.4576 10.2667 31.691 10.33 31.9443 10.33ZM36.6734 6.86L36.7334 7.65C36.8934 7.35 37.1101 7.11667 37.3834 6.95C37.6634 6.77667 37.9834 6.69 38.3434 6.69C38.6834 6.69 38.9668 6.77 39.1934 6.93C39.4268 7.09 39.5701 7.30667 39.6234 7.58C39.7901 7.3 40.0068 7.08333 40.2734 6.93C40.5468 6.77 40.8368 6.69 41.1434 6.69C41.5434 6.69 41.8601 6.80667 42.0934 7.04C42.3334 7.27333 42.4601 7.57 42.4734 7.93V11H41.5434V8.28C41.5301 8.06667 41.4734 7.89 41.3734 7.75C41.2801 7.60333 41.1168 7.52333 40.8834 7.51C40.6368 7.51 40.4201 7.58333 40.2334 7.73C40.0468 7.87 39.9001 8.05667 39.7934 8.29C39.6868 8.52333 39.6301 8.77 39.6234 9.03V11H38.6834V8.28C38.6768 8.06667 38.6201 7.89 38.5134 7.75C38.4134 7.60333 38.2434 7.52333 38.0034 7.51C37.7634 7.51 37.5501 7.58333 37.3634 7.73C37.1768 7.87 37.0301 8.05667 36.9234 8.29C36.8168 8.52333 36.7634 8.77333 36.7634 9.04V11H35.8334V6.86H36.6734ZM43.8154 11C44.2287 10.58 44.6287 10.1733 45.0154 9.78C45.4087 9.38667 45.7587 9.00333 46.0654 8.63C46.3721 8.25667 46.6154 7.89333 46.7954 7.54C46.9821 7.18667 47.0754 6.84667 47.0754 6.52C47.0754 6.22667 47.0154 5.99 46.8954 5.81C46.7754 5.62333 46.6187 5.48667 46.4254 5.4C46.2387 5.31333 46.0421 5.27 45.8354 5.27C45.5421 5.27 45.3054 5.33 45.1254 5.45C44.9521 5.57 44.8254 5.71667 44.7454 5.89C44.6654 6.06333 44.6254 6.23 44.6254 6.39C44.6254 6.61667 44.6587 6.81667 44.7254 6.99C44.7921 7.16333 44.8887 7.31333 45.0154 7.44L44.4254 7.98C44.2654 7.88667 44.1287 7.75 44.0154 7.57C43.9087 7.38333 43.8254 7.18667 43.7654 6.98C43.7121 6.77333 43.6854 6.58333 43.6854 6.41C43.6854 6.05 43.7721 5.71333 43.9454 5.4C44.1254 5.08667 44.3854 4.83333 44.7254 4.64C45.0721 4.44 45.4954 4.34 45.9954 4.34C46.4087 4.34 46.7721 4.43667 47.0854 4.63C47.3987 4.82333 47.6421 5.08 47.8154 5.4C47.9887 5.71333 48.0754 6.06 48.0754 6.44C48.0754 6.86667 47.9687 7.28333 47.7554 7.69C47.5421 8.09667 47.2687 8.49667 46.9354 8.89C46.6087 9.28333 46.2721 9.67333 45.9254 10.06H48.2954V11H43.8154ZM55.0746 10.46C54.9546 10.54 54.7913 10.63 54.5846 10.73C54.3779 10.83 54.1346 10.9167 53.8546 10.99C53.5813 11.0567 53.2813 11.0867 52.9546 11.08C52.3879 11.0733 51.8813 10.9733 51.4346 10.78C50.9879 10.5867 50.6046 10.3233 50.2846 9.99C49.9713 9.65 49.7313 9.26333 49.5646 8.83C49.3979 8.39667 49.3146 7.93333 49.3146 7.44C49.3146 6.9 49.4013 6.40333 49.5746 5.95C49.7546 5.49 50.0046 5.09333 50.3246 4.76C50.6446 4.42 51.0213 4.15667 51.4546 3.97C51.8946 3.78333 52.3746 3.69 52.8946 3.69C53.3279 3.69 53.7213 3.75 54.0746 3.87C54.4279 3.98333 54.7313 4.11667 54.9846 4.27L54.5946 5.18C54.3946 5.04667 54.1513 4.92 53.8646 4.8C53.5779 4.68 53.2646 4.62 52.9246 4.62C52.5713 4.62 52.2379 4.69333 51.9246 4.84C51.6113 4.98 51.3346 5.17667 51.0946 5.43C50.8546 5.67667 50.6646 5.97 50.5246 6.31C50.3913 6.64333 50.3246 7.00333 50.3246 7.39C50.3246 7.91 50.4313 8.38 50.6446 8.8C50.8646 9.21333 51.1713 9.54 51.5646 9.78C51.9646 10.02 52.4313 10.14 52.9646 10.14C53.3379 10.14 53.6646 10.0867 53.9446 9.98C54.2313 9.86667 54.4679 9.73667 54.6546 9.59L55.0746 10.46ZM58.208 11.1C57.8146 11.1 57.458 11.0167 57.138 10.85C56.8246 10.6833 56.5746 10.44 56.388 10.12C56.208 9.79333 56.118 9.39667 56.118 8.93C56.118 8.46333 56.2113 8.06333 56.398 7.73C56.5913 7.39667 56.848 7.14 57.168 6.96C57.4946 6.78 57.8513 6.69 58.238 6.69C58.6113 6.69 58.928 6.77 59.188 6.93C59.448 7.09 59.6513 7.28333 59.798 7.51L59.868 6.86H60.728V11H59.798V10.32C59.718 10.4267 59.6013 10.54 59.448 10.66C59.3013 10.78 59.1213 10.8833 58.908 10.97C58.7013 11.0567 58.468 11.1 58.208 11.1ZM58.458 10.33C58.798 10.33 59.088 10.2367 59.328 10.05C59.568 9.85667 59.7246 9.59667 59.798 9.27V8.45C59.718 8.16333 59.5513 7.92667 59.298 7.74C59.0446 7.55333 58.7546 7.46 58.428 7.46C58.1746 7.46 57.9446 7.52 57.738 7.64C57.5313 7.76 57.3646 7.92667 57.238 8.14C57.118 8.35333 57.058 8.6 57.058 8.88C57.058 9.15333 57.1213 9.4 57.248 9.62C57.3746 9.83333 57.5446 10.0067 57.758 10.14C57.9713 10.2667 58.2046 10.33 58.458 10.33ZM63.1871 6.86L63.2471 7.65C63.4071 7.35 63.6238 7.11667 63.8971 6.95C64.1771 6.77667 64.4971 6.69 64.8571 6.69C65.1971 6.69 65.4804 6.77 65.7071 6.93C65.9404 7.09 66.0838 7.30667 66.1371 7.58C66.3038 7.3 66.5204 7.08333 66.7871 6.93C67.0604 6.77 67.3504 6.69 67.6571 6.69C68.0571 6.69 68.3738 6.80667 68.6071 7.04C68.8471 7.27333 68.9738 7.57 68.9871 7.93V11H68.0571V8.28C68.0438 8.06667 67.9871 7.89 67.8871 7.75C67.7938 7.60333 67.6304 7.52333 67.3971 7.51C67.1504 7.51 66.9338 7.58333 66.7471 7.73C66.5604 7.87 66.4138 8.05667 66.3071 8.29C66.2004 8.52333 66.1438 8.77 66.1371 9.03V11H65.1971V8.28C65.1904 8.06667 65.1338 7.89 65.0271 7.75C64.9271 7.60333 64.7571 7.52333 64.5171 7.51C64.2771 7.51 64.0638 7.58333 63.8771 7.73C63.6904 7.87 63.5438 8.05667 63.4371 8.29C63.3304 8.52333 63.2771 8.77333 63.2771 9.04V11H62.3471V6.86H63.1871Z" fill="white"/>
<defs>
<filter id="filter0_d" x="2.5" y="3.5" width="10" height="8" filterUnits="userSpaceOnUse" color-interpolation-filters="sRGB">
<feFlood flood-opacity="0" result="BackgroundImageFix"/>
<feColorMatrix in="SourceAlpha" type="matrix" values="0 0 0 0 0 0 0 0 0 0 0 0 0 0 0 0 0 0 127 0"/>
<feOffset dx="0.5" dy="0.5"/>
<feGaussianBlur stdDeviation="0.5"/>
<feColorMatrix type="matrix" values="0 0 0 0 0 0 0 0 0 0 0 0 0 0 0 0 0 0 0.4 0"/>
<feBlend mode="normal" in2="BackgroundImageFix" result="effect1_dropShadow"/>
<feBlend mode="normal" in="SourceGraphic" in2="effect1_dropShadow" result="shape"/>
</filter>
</defs>
</svg>
