<svg width="30" height="10" viewBox="0 0 30 10" fill="none" xmlns="http://www.w3.org/2000/svg">
<rect width="30" height="10" rx="3" fill="#F59B66"/>
<path d="M5.82409 2.216C6.40009 2.216 6.85343 2.336 7.18409 2.576C7.52009 2.81067 7.68809 3.176 7.68809 3.672C7.68809 3.98133 7.61876 4.248 7.48009 4.472C7.34143 4.696 7.14943 4.872 6.90409 5C7.22409 5.12267 7.48276 5.30133 7.68009 5.536C7.87743 5.77067 7.97609 6.05067 7.97609 6.376C7.97609 6.76 7.88276 7.072 7.69609 7.312C7.51476 7.552 7.27743 7.728 6.98409 7.84C6.69076 7.94667 6.37876 8 6.04809 8H4.32809V2.216H5.82409ZM5.98409 4.744C6.29876 4.744 6.52809 4.656 6.67209 4.48C6.81609 4.29867 6.88809 4.08267 6.88809 3.832C6.88809 3.528 6.79476 3.30667 6.60809 3.168C6.42143 3.02933 6.17076 2.96 5.85609 2.96H5.10409V4.744H5.98409ZM6.01609 7.28C6.33609 7.28 6.60809 7.208 6.83209 7.064C7.06143 6.91467 7.17609 6.688 7.17609 6.384C7.17609 6.16 7.11476 5.984 6.99209 5.856C6.86943 5.728 6.71476 5.63733 6.52809 5.584C6.34676 5.52533 6.15743 5.496 5.96009 5.496H5.10409V7.28H6.01609ZM9.98522 5.952C9.98522 6.208 10.0466 6.44 10.1692 6.648C10.2919 6.85067 10.4572 7.01333 10.6652 7.136C10.8786 7.25333 11.1132 7.312 11.3692 7.312C11.6412 7.312 11.8812 7.25333 12.0892 7.136C12.3026 7.01333 12.4706 6.85067 12.5932 6.648C12.7212 6.44 12.7852 6.208 12.7852 5.952V2.216H13.5452V5.976C13.5452 6.39733 13.4466 6.76533 13.2492 7.08C13.0572 7.39467 12.7959 7.63733 12.4652 7.808C12.1399 7.97867 11.7746 8.064 11.3692 8.064C10.9639 8.064 10.5986 7.97867 10.2732 7.808C9.94789 7.63733 9.68922 7.39467 9.49722 7.08C9.30522 6.76533 9.20922 6.39733 9.20922 5.976V2.216H9.98522V5.952ZM18.1326 3.248C17.9353 3.14667 17.7193 3.05867 17.4846 2.984C17.2499 2.90933 17.0233 2.872 16.8046 2.872C16.4899 2.872 16.2393 2.944 16.0526 3.088C15.8713 3.232 15.7806 3.42667 15.7806 3.672C15.7806 3.848 15.8393 3.99733 15.9566 4.12C16.0793 4.24267 16.2339 4.352 16.4206 4.448C16.6126 4.53867 16.8153 4.624 17.0286 4.704C17.2686 4.79467 17.5006 4.904 17.7246 5.032C17.9486 5.16 18.1326 5.33333 18.2766 5.552C18.4259 5.76533 18.5006 6.05333 18.5006 6.416C18.5006 6.72533 18.4233 7.00533 18.2686 7.256C18.1139 7.50133 17.8953 7.69867 17.6126 7.848C17.3299 7.992 16.9939 8.064 16.6046 8.064C16.2206 8.064 15.8633 8.00267 15.5326 7.88C15.2073 7.75733 14.9299 7.616 14.7006 7.456L15.0446 6.84C15.2313 6.984 15.4606 7.10933 15.7326 7.216C16.0099 7.32267 16.2739 7.376 16.5246 7.376C16.7113 7.376 16.8926 7.344 17.0686 7.28C17.2499 7.216 17.3993 7.11467 17.5166 6.976C17.6339 6.832 17.6926 6.648 17.6926 6.424C17.6926 6.232 17.6393 6.06933 17.5326 5.936C17.4259 5.80267 17.2873 5.69067 17.1166 5.6C16.9513 5.504 16.7699 5.41867 16.5726 5.344C16.3913 5.28 16.2073 5.20533 16.0206 5.12C15.8339 5.03467 15.6606 4.93333 15.5006 4.816C15.3459 4.69333 15.2206 4.544 15.1246 4.368C15.0286 4.192 14.9806 3.97867 14.9806 3.728C14.9806 3.424 15.0526 3.16 15.1966 2.936C15.3459 2.70667 15.5486 2.528 15.8046 2.4C16.0606 2.26667 16.3566 2.19467 16.6926 2.184C17.0606 2.184 17.3859 2.22933 17.6686 2.32C17.9566 2.41067 18.2099 2.52 18.4286 2.648L18.1326 3.248ZM21.3328 6.072L19.1888 2.216H20.1488L21.7408 5.192L23.3248 2.216H24.2768L22.1088 6.072V8H21.3328V6.072Z" fill="white"/>
</svg>
