<svg width="78" height="15" viewBox="0 0 78 15" fill="none" xmlns="http://www.w3.org/2000/svg">
<path d="M0 3C0 1.34315 1.34315 0 3 0H75C76.6569 0 78 1.34315 78 3V12C78 13.6569 76.6569 15 75 15H3C1.34315 15 0 13.6569 0 12V3Z" fill="#EB5757"/>
<path d="M0 3C0 1.34315 1.34315 0 3 0H13.5689C15.6913 0 17.1426 2.14358 16.3543 4.11417L12.7543 13.1142C12.2987 14.2531 11.1956 15 9.9689 15H3C1.34315 15 0 13.6569 0 12V3Z" fill="black"/>
<g clip-path="url(#clip0)" filter="url(#filter0_d)">
<path d="M3.74149 7.26733C3.74149 7.26733 4.01804 7.77519 4.59768 8.20507C4.59768 8.20507 4.17788 3.77022 6.91312 3C6.21234 6.21496 7.80453 7.12163 8.38491 5.4231C9.35415 7.04067 8.61823 8.45192 8.61823 8.45192C9.01566 8.52349 9.3495 7.98075 9.3495 7.98075C9.35248 8.04761 9.35415 8.11492 9.35415 8.18272C9.35416 10.1529 8.07646 11.75 6.50032 11.75C4.92419 11.75 3.64648 10.1529 3.64648 8.1827C3.64648 7.86623 3.67962 7.55947 3.74149 7.26733Z" fill="#FF6536"/>
<path d="M9.34919 7.98075C9.34919 7.98075 9.01535 8.52349 8.61792 8.45192C8.61792 8.45192 9.35384 7.04067 8.3846 5.4231C7.80421 7.12163 6.21203 6.21496 6.91281 3C6.76631 3.04125 6.62894 3.09309 6.5 3.15412V11.75C8.07613 11.75 9.35384 10.1529 9.35384 8.1827C9.35384 8.1149 9.35217 8.04761 9.34919 7.98075Z" fill="#FF421D"/>
<path d="M5.24805 10.1856C5.24805 11.0496 5.8084 11.7501 6.49963 11.7501C7.19085 11.7501 7.75121 11.0496 7.75121 10.1856C7.75121 9.72313 7.59068 9.30754 7.33547 9.02113C6.85157 9.84289 6.16199 8.59634 6.6994 7.68604C6.6994 7.68604 5.24805 7.91338 5.24805 10.1856Z" fill="#FBBF00"/>
<path d="M7.75158 10.1856C7.75158 9.72313 7.59106 9.30754 7.33584 9.02113C6.85194 9.84289 6.16236 8.59634 6.69977 7.68604C6.69977 7.68604 6.62091 7.69843 6.5 7.74612V11.7501C7.19122 11.7501 7.75158 11.0496 7.75158 10.1856Z" fill="#FFA900"/>
</g>
<path d="M25.5385 11.23L20.2285 5.85L20.2485 11H19.2685V3.55H19.3185L24.6185 9.01L24.5985 3.77H25.5685V11.23H25.5385ZM27.6474 3.77H32.3474V4.7H28.6174V6.9H31.9474V7.83H28.6174V10.06H32.4874V11H27.6474V3.77ZM33.5506 3.8H34.6806L36.5406 9.06L37.8006 5.79L37.0306 3.8H37.9906L40.0006 8.95L41.7806 3.8H42.8206L39.9706 11.32L38.2806 7.01L36.4306 11.33L33.5506 3.8ZM47.4228 11V3.54H47.4328L50.9928 8.59L54.6028 3.54H54.6128V11H53.6528V6.33L50.9928 10.09H50.9728L48.3628 6.46V11H47.4228ZM56.1004 8.89C56.1004 8.47667 56.1971 8.10333 56.3904 7.77C56.5904 7.43667 56.8637 7.17333 57.2104 6.98C57.5571 6.78667 57.9537 6.69 58.4004 6.69C58.8471 6.69 59.2404 6.78667 59.5804 6.98C59.9204 7.17333 60.1837 7.43667 60.3704 7.77C60.5637 8.10333 60.6604 8.47667 60.6604 8.89C60.6604 9.30333 60.5637 9.67667 60.3704 10.01C60.1837 10.3433 59.9171 10.61 59.5704 10.81C59.2304 11.0033 58.8337 11.1 58.3804 11.1C57.9404 11.1 57.5471 11.01 57.2004 10.83C56.8604 10.65 56.5904 10.3933 56.3904 10.06C56.1971 9.72667 56.1004 9.33667 56.1004 8.89ZM57.0404 8.9C57.0404 9.16667 57.0971 9.41 57.2104 9.63C57.3304 9.84333 57.4904 10.0133 57.6904 10.14C57.8904 10.2667 58.1171 10.33 58.3704 10.33C58.6304 10.33 58.8604 10.2667 59.0604 10.14C59.2604 10.0133 59.4171 9.84333 59.5304 9.63C59.6504 9.41 59.7104 9.16667 59.7104 8.9C59.7104 8.63333 59.6504 8.39333 59.5304 8.18C59.4171 7.96 59.2604 7.78667 59.0604 7.66C58.8604 7.52667 58.6304 7.46 58.3704 7.46C58.1171 7.46 57.8871 7.52667 57.6804 7.66C57.4804 7.79333 57.3237 7.97 57.2104 8.19C57.0971 8.40333 57.0404 8.64 57.0404 8.9ZM63.5996 11.1C63.2063 11.1 62.8529 11.01 62.5396 10.83C62.2329 10.6433 61.9896 10.3833 61.8096 10.05C61.6363 9.71 61.5496 9.31667 61.5496 8.87C61.5496 8.41667 61.6429 8.02667 61.8296 7.7C62.0163 7.37333 62.2729 7.12333 62.5996 6.95C62.9329 6.77667 63.3029 6.69 63.7096 6.69C64.0229 6.69 64.3229 6.75667 64.6096 6.89C64.8963 7.01667 65.1263 7.19333 65.2996 7.42V3.25H66.2296V11H65.2896V10.36C65.0896 10.58 64.8429 10.76 64.5496 10.9C64.2629 11.0333 63.9463 11.1 63.5996 11.1ZM63.8896 10.3C64.2496 10.3 64.5529 10.2033 64.7996 10.01C65.0463 9.81667 65.2063 9.55667 65.2796 9.23V8.45C65.2063 8.15667 65.0396 7.91333 64.7796 7.72C64.5263 7.52667 64.2296 7.43 63.8896 7.43C63.6363 7.43 63.4029 7.49333 63.1896 7.62C62.9763 7.74 62.8063 7.90667 62.6796 8.12C62.5529 8.33333 62.4896 8.58 62.4896 8.86C62.4896 9.12667 62.5529 9.37 62.6796 9.59C62.8063 9.81 62.9763 9.98333 63.1896 10.11C63.4029 10.2367 63.6363 10.3 63.8896 10.3ZM69.7573 11.1C69.2907 11.1 68.884 11.0067 68.5373 10.82C68.1973 10.6267 67.934 10.3633 67.7473 10.03C67.5673 9.69667 67.4773 9.32 67.4773 8.9C67.4773 8.49333 67.5773 8.12333 67.7773 7.79C67.984 7.45 68.2607 7.18333 68.6073 6.99C68.9607 6.79 69.3507 6.69 69.7773 6.69C70.324 6.69 70.7773 6.85 71.1373 7.17C71.4973 7.49 71.744 7.93 71.8773 8.49L68.5973 9.64C68.7107 9.84667 68.8707 10.01 69.0773 10.13C69.284 10.2433 69.5173 10.3 69.7773 10.3C69.964 10.3 70.1407 10.2667 70.3073 10.2C70.474 10.1333 70.634 10.0467 70.7873 9.94L71.2173 10.63C71.004 10.77 70.7673 10.8833 70.5073 10.97C70.254 11.0567 70.004 11.1 69.7573 11.1ZM68.3973 8.85C68.3907 8.93 68.394 9.00667 68.4073 9.08L70.8173 8.19C70.724 7.99 70.5873 7.81333 70.4073 7.66C70.234 7.50667 70.0007 7.43 69.7073 7.43C69.3273 7.43 69.014 7.56333 68.7673 7.83C68.5207 8.09667 68.3973 8.43667 68.3973 8.85ZM73.0327 3.25H73.9627V11H73.0327V3.25Z" fill="white"/>
<defs>
<filter id="filter0_d" x="2.5" y="2.5" width="9" height="10.75" filterUnits="userSpaceOnUse" color-interpolation-filters="sRGB">
<feFlood flood-opacity="0" result="BackgroundImageFix"/>
<feColorMatrix in="SourceAlpha" type="matrix" values="0 0 0 0 0 0 0 0 0 0 0 0 0 0 0 0 0 0 127 0"/>
<feOffset dx="0.5" dy="0.5"/>
<feGaussianBlur stdDeviation="0.5"/>
<feColorMatrix type="matrix" values="0 0 0 0 0 0 0 0 0 0 0 0 0 0 0 0 0 0 0.4 0"/>
<feBlend mode="normal" in2="BackgroundImageFix" result="effect1_dropShadow"/>
<feBlend mode="normal" in="SourceGraphic" in2="effect1_dropShadow" result="shape"/>
</filter>
<clipPath id="clip0">
<rect width="7" height="8.75" fill="white" transform="translate(3 3)"/>
</clipPath>
</defs>
</svg>
