<svg width="78" height="15" viewBox="0 0 78 15" fill="none" xmlns="http://www.w3.org/2000/svg">
<path d="M0 3C0 1.34315 1.34315 0 3 0H75C76.6569 0 78 1.34315 78 3V12C78 13.6569 76.6569 15 75 15H3C1.34315 15 0 13.6569 0 12V3Z" fill="#EE403F"/>
<path d="M0 3C0 1.34315 1.34315 0 3 0H13.5689C15.6913 0 17.1426 2.14358 16.3543 4.11417L12.7543 13.1142C12.2987 14.2531 11.1956 15 9.9689 15H3C1.34315 15 0 13.6569 0 12V3Z" fill="black"/>
<g filter="url(#filter0_d)">
<path d="M10.917 5.53515C10.8655 5.49882 10.8018 5.4974 10.7492 5.53152L8.91367 6.72443V6.00867C8.91314 5.45185 8.53403 5.00063 8.06621 5H3.84746C3.37963 5.00063 3.00053 5.45185 3 6.00867V9.99133C3.00053 10.5481 3.37963 10.9994 3.84746 11H8.06621C8.53403 10.9994 8.91314 10.5481 8.91367 9.99133V9.28857L10.7493 10.4815C10.8018 10.5156 10.8655 10.5143 10.917 10.4779C10.9685 10.4415 11 10.3756 11 10.3044V5.70859C11 5.63735 10.9684 5.57147 10.917 5.53515ZM8.57455 9.99141C8.57429 10.3255 8.3468 10.5962 8.06608 10.5966H3.84746C3.56674 10.5962 3.33931 10.3255 3.33898 9.99141V6.00867C3.33931 5.67463 3.56674 5.40386 3.84746 5.40347H8.06621C8.34686 5.40386 8.57435 5.67463 8.57468 6.00867L8.57455 9.99141ZM10.661 9.96446L8.91367 8.82892V7.18408L10.661 6.04862V9.96446Z" fill="white"/>
</g>
<path d="M29.1382 3.77C29.9182 3.77 30.5315 3.96667 30.9782 4.36C31.4249 4.75333 31.6482 5.30333 31.6482 6.01C31.6482 6.29667 31.6049 6.58 31.5182 6.86C31.4315 7.13333 31.2915 7.38333 31.0982 7.61C30.9115 7.83 30.6649 8.01 30.3582 8.15C30.0515 8.28333 29.6782 8.35 29.2382 8.35H28.1682V11H27.1982V3.77H29.1382ZM29.2382 7.4C29.5182 7.4 29.7515 7.35667 29.9382 7.27C30.1249 7.17667 30.2715 7.05667 30.3782 6.91C30.4915 6.76333 30.5715 6.61333 30.6182 6.46C30.6649 6.3 30.6882 6.15667 30.6882 6.03C30.6882 5.83667 30.6415 5.63667 30.5482 5.43C30.4615 5.22333 30.3149 5.05 30.1082 4.91C29.9082 4.77 29.6349 4.7 29.2882 4.7H28.1682V7.4H29.2382ZM35.0755 3.77C35.5555 3.77 35.9888 3.85667 36.3755 4.03C36.7621 4.19667 37.0688 4.45 37.2955 4.79C37.5221 5.12333 37.6355 5.53 37.6355 6.01C37.6355 6.42333 37.5421 6.82333 37.3555 7.21C37.1755 7.59667 36.8688 7.89 36.4355 8.09L38.2555 11H37.1255L35.4155 8.33C35.3421 8.33667 35.2655 8.34 35.1855 8.34H34.1155V11H33.1455V3.77H35.0755ZM35.1655 7.4C35.5521 7.4 35.8488 7.33 36.0555 7.19C36.2688 7.04333 36.4188 6.86667 36.5055 6.66C36.5921 6.44667 36.6355 6.24333 36.6355 6.05C36.6355 5.85667 36.5888 5.65667 36.4955 5.45C36.4021 5.24333 36.2521 5.06667 36.0455 4.92C35.8455 4.77333 35.5755 4.7 35.2355 4.7H34.1155V7.4H35.1655ZM39.747 3.77H40.717V11H39.747V3.77ZM43.3139 3.77L45.3939 8.98L47.4039 3.77H48.5439L45.3539 11.33L42.1639 3.77H43.3139ZM48.3532 11L51.5132 3.47H51.5732L54.7332 11H53.6132L52.8632 9.1H50.0832L49.3132 11H48.3532ZM50.4232 8.26H52.5332L51.5032 5.63L50.4232 8.26ZM54.9983 3.77H59.7983V4.7H57.8583V11H56.8883V4.7H54.9983V3.77ZM61.3486 3.77H66.0486V4.7H62.3186V6.9H65.6486V7.83H62.3186V10.06H66.1886V11H61.3486V3.77Z" fill="white"/>
<defs>
<filter id="filter0_d" x="2.5" y="4.5" width="10" height="8" filterUnits="userSpaceOnUse" color-interpolation-filters="sRGB">
<feFlood flood-opacity="0" result="BackgroundImageFix"/>
<feColorMatrix in="SourceAlpha" type="matrix" values="0 0 0 0 0 0 0 0 0 0 0 0 0 0 0 0 0 0 127 0"/>
<feOffset dx="0.5" dy="0.5"/>
<feGaussianBlur stdDeviation="0.5"/>
<feColorMatrix type="matrix" values="0 0 0 0 0 0 0 0 0 0 0 0 0 0 0 0 0 0 0.4 0"/>
<feBlend mode="normal" in2="BackgroundImageFix" result="effect1_dropShadow"/>
<feBlend mode="normal" in="SourceGraphic" in2="effect1_dropShadow" result="shape"/>
</filter>
</defs>
</svg>
