<svg width="30" height="10" viewBox="0 0 30 10" fill="none" xmlns="http://www.w3.org/2000/svg">
<rect width="30" height="10" rx="3" fill="#EE403F"/>
<path d="M6.83138 5.112C6.83138 4.712 6.90604 4.33333 7.05538 3.976C7.21004 3.61867 7.42338 3.304 7.69538 3.032C7.96738 2.76 8.27938 2.54667 8.63138 2.392C8.98871 2.232 9.37004 2.152 9.77538 2.152C10.1807 2.152 10.562 2.232 10.9194 2.392C11.282 2.54667 11.5994 2.76 11.8714 3.032C12.1434 3.304 12.3567 3.61867 12.5114 3.976C12.666 4.33333 12.7434 4.712 12.7434 5.112C12.7434 5.52267 12.666 5.90667 12.5114 6.264C12.3567 6.616 12.1434 6.928 11.8714 7.2C11.5994 7.472 11.282 7.68533 10.9194 7.84C10.562 7.98933 10.1807 8.064 9.77538 8.064C9.37004 8.064 8.98871 7.98933 8.63138 7.84C8.27938 7.69067 7.96738 7.48267 7.69538 7.216C7.42338 6.94933 7.21004 6.63733 7.05538 6.28C6.90604 5.91733 6.83138 5.528 6.83138 5.112ZM7.63138 5.12C7.63138 5.424 7.68738 5.70933 7.79938 5.976C7.91138 6.23733 8.06604 6.46933 8.26338 6.672C8.46071 6.87467 8.69004 7.032 8.95138 7.144C9.21271 7.256 9.49538 7.312 9.79938 7.312C10.1994 7.312 10.5594 7.216 10.8794 7.024C11.2047 6.82667 11.4634 6.56267 11.6554 6.232C11.8474 5.896 11.9434 5.52267 11.9434 5.112C11.9434 4.808 11.8874 4.52267 11.7754 4.256C11.6634 3.984 11.5087 3.74667 11.3114 3.544C11.114 3.34133 10.8847 3.184 10.6234 3.072C10.362 2.95467 10.082 2.896 9.78338 2.896C9.37804 2.896 9.01271 2.99733 8.68738 3.2C8.36204 3.40267 8.10338 3.672 7.91138 4.008C7.72471 4.344 7.63138 4.71467 7.63138 5.12ZM14.0508 2.216H17.4828V2.96H14.8268V4.8H17.1548V5.544H14.8268V8H14.0508V2.216ZM18.7617 2.216H22.1937V2.96H19.5377V4.8H21.8657V5.544H19.5377V8H18.7617V2.216Z" fill="white"/>
</svg>
