<svg width="13" height="13" viewBox="0 0 13 13" fill="none" xmlns="http://www.w3.org/2000/svg">
<path d="M8.68163 1.48738C6.69846 -0.495792 3.47071 -0.495792 1.48754 1.48738C-0.495196 3.47097 -0.495196 6.69829 1.48754 8.68189C3.25361 10.4475 6.00416 10.6367 7.98604 9.25797C8.02774 9.4553 8.12318 9.64359 8.27666 9.79707L11.1648 12.6852C11.5857 13.1052 12.2658 13.1052 12.6845 12.6852C13.105 12.2647 13.105 11.5846 12.6845 11.1655L9.79638 8.27649C9.64376 8.1243 9.45504 8.02843 9.25771 7.98673C10.6373 6.00442 10.4481 3.2543 8.68163 1.48738ZM7.76979 7.77005C6.28919 9.25066 3.87955 9.25066 2.39938 7.77005C0.919632 6.28945 0.919632 3.88024 2.39938 2.39964C3.87955 0.919466 6.28919 0.919466 7.76979 2.39964C9.2504 3.88024 9.2504 6.28945 7.76979 7.77005Z" fill="white"/>
</svg>
