<svg width="21" height="18" viewBox="0 0 21 18" fill="none" xmlns="http://www.w3.org/2000/svg">
<path d="M7.95753 2.73031L4.86829 5.81886H1.32454C0.864128 5.81886 0.491211 6.19177 0.491211 6.65219V11.6522C0.491211 12.1123 0.864128 12.4855 1.32454 12.4855H4.86829L7.95753 15.5741C8.47941 16.0959 9.3801 15.7293 9.3801 14.9848V3.31955C9.3801 2.57441 8.47871 2.20913 7.95753 2.73031ZM16.0589 0.956703C15.6711 0.702189 15.1499 0.809481 14.8954 1.19802C14.6405 1.58587 14.7489 2.10705 15.1367 2.36156C17.4377 3.87163 18.811 6.41018 18.811 9.15254C18.811 11.8949 17.4377 14.4334 15.1367 15.9435C14.7489 16.1977 14.6405 16.7192 14.8954 17.1067C15.1398 17.4786 15.6568 17.6123 16.0589 17.348C18.8339 15.5265 20.4912 12.4623 20.4912 9.15219C20.4912 5.84212 18.8339 2.77823 16.0589 0.956703ZM17.1579 9.15219C17.1579 6.94629 16.0447 4.91816 14.1798 3.72719C13.7912 3.47927 13.2759 3.59455 13.0298 3.98622C12.7836 4.37788 12.8985 4.89629 13.287 5.14455C14.6673 6.02615 15.4912 7.52407 15.4912 9.15219C15.4912 10.7803 14.6673 12.2782 13.287 13.1598C12.8985 13.4077 12.7836 13.9261 13.0298 14.3182C13.2558 14.6779 13.7631 14.8439 14.1798 14.5772C16.0447 13.3862 17.1579 11.3584 17.1579 9.15219ZM12.2353 6.48309C11.8332 6.2633 11.3259 6.40809 11.103 6.81122C10.8811 7.21434 11.028 7.72094 11.4311 7.94351C11.8794 8.18969 12.1579 8.65323 12.1579 9.15219C12.1579 9.65149 11.8794 10.1147 11.4315 10.3609C11.0284 10.5834 10.8815 11.09 11.1034 11.4932C11.3266 11.898 11.8343 12.0418 12.2357 11.8213C13.2159 11.2814 13.8249 10.2588 13.8249 9.15184C13.8249 8.0449 13.2159 7.02268 12.2353 6.48309Z" fill="black"/>
</svg>
