<svg width="10" height="11" viewBox="0 0 10 11" fill="none" xmlns="http://www.w3.org/2000/svg">
<g clip-path="url(#clip0)">
<path d="M1.04166 4.625C0.4675 4.625 0 5.0925 0 5.66666V9C0 9.57416 0.4675 10.0417 1.04166 10.0417H2.29166C2.52625 10.0417 2.74207 9.9625 2.91666 9.83082V4.625H1.04166Z" fill="white"/>
<path d="M10.0002 6.18717C10.0002 5.93676 9.901 5.70342 9.72891 5.53133C9.9235 5.31842 10.0227 5.03299 9.99557 4.73592C9.94682 4.20633 9.46973 3.79133 8.90891 3.79133H6.33516C6.46266 3.40424 6.66682 2.69467 6.66682 2.12467C6.66682 1.22092 5.89891 0.458008 5.41682 0.458008C4.98391 0.458008 4.67473 0.701758 4.66141 0.711758C4.61225 0.751348 4.5835 0.811348 4.5835 0.874668V2.28758L3.3835 4.88717L3.3335 4.91258V9.37842C3.67266 9.53842 4.10182 9.62467 4.37516 9.62467H8.19975C8.6535 9.62467 9.05059 9.31883 9.14391 8.89676C9.19182 8.67967 9.16391 8.46092 9.0685 8.27092C9.37641 8.11592 9.5835 7.79883 9.5835 7.43717C9.5835 7.28967 9.54975 7.14842 9.48559 7.02051C9.7935 6.86551 10.0002 6.54842 10.0002 6.18717Z" fill="white"/>
</g>
<defs>
<clipPath id="clip0">
<rect width="10" height="10" fill="white" transform="translate(0 0.25)"/>
</clipPath>
</defs>
</svg>
