<svg width="13" height="16" viewBox="0 0 13 16" fill="none" xmlns="http://www.w3.org/2000/svg">
<path d="M2.88193 7.27091C3.3761 8.89132 4.646 10.5749 6.35835 10.5749C8.07071 10.5749 9.34348 8.89132 9.83478 7.27091C10.2571 7.12438 10.6105 6.70204 10.7484 6.15615C10.9381 5.40628 10.6594 4.71099 10.1192 4.50126C10.1681 4.30301 10.1939 4.09903 10.1939 3.88929C10.1939 2.11086 8.42122 0.674316 6.23478 0.674316C4.04837 0.674316 2.26993 2.11373 2.26993 3.88929C2.26993 4.14212 2.31015 4.38921 2.37624 4.6248C1.9855 4.92073 1.80737 5.51833 1.96826 6.15902C2.1062 6.70204 2.45956 7.12438 2.88193 7.27091ZM2.61757 5.20516C2.67504 5.11035 2.74974 5.04714 2.84455 5.02128C2.86179 5.01841 2.88477 5.01554 2.90488 5.01554C2.92212 5.01554 2.93649 5.01554 2.95372 5.01841L3.22667 5.04427L3.26689 4.7742C3.35021 4.21108 3.52547 3.70541 3.77255 3.27445C4.23512 3.79448 5.1545 4.14787 6.21467 4.14787C7.41274 4.14787 8.43269 3.6968 8.80906 3.06472C9.1251 3.53878 9.3492 4.11626 9.44685 4.7742L9.48708 5.04427L9.76002 5.01841C9.80024 5.01554 9.83759 5.01554 9.8692 5.02128C9.88931 5.02416 9.90083 5.03852 9.92091 5.04427C10.168 5.15345 10.2944 5.58728 10.1881 6.01824C10.0789 6.45782 9.79162 6.7164 9.56468 6.74513L9.37503 6.77099L9.32331 6.95487C8.90962 8.46611 7.76039 10.0003 6.35255 10.0003C4.94474 10.0003 3.79551 8.46898 3.38753 6.95487L3.33582 6.77099L3.14619 6.74513C2.91922 6.7164 2.63191 6.45208 2.52273 6.01824C2.45096 5.70795 2.49406 5.39478 2.61757 5.20516Z" fill="#05BE70"/>
<path d="M9.73399 9.27637C9.36624 9.9027 8.94102 10.4342 8.37503 10.7186C7.21143 11.3134 6.34663 11.796 6.34663 11.796L6.34376 11.7932V11.7788L6.32939 11.7845L6.31503 11.7788V11.7932L6.31215 11.796C6.31215 11.796 5.44736 11.3163 4.28376 10.7186C3.72064 10.4284 3.29542 9.8998 2.92479 9.27637C1.20385 9.97453 0 11.5863 0 12.9884C0 14.468 0 15.9017 0 15.9017H6.31215H6.33514H12.653C12.653 15.9017 12.653 14.468 12.653 12.9884C12.6588 11.5863 11.455 9.9774 9.73399 9.27637Z" fill="#05BE70"/>
</svg>
