<svg width="13" height="16" viewBox="0 0 13 16" fill="none" xmlns="http://www.w3.org/2000/svg">
<path d="M3.3024 8.98785C3.97618 9.07846 4.79863 8.93967 5.69699 8.89155C5.86465 8.92551 6.0323 8.9482 6.20628 8.9482C6.38342 8.9482 6.5574 8.92551 6.73138 8.88871C9.06904 8.99068 10.8911 9.58267 10.8911 5.32262C10.8911 2.43065 8.79383 0.0825195 6.20628 0.0825195C3.61873 0.0825195 1.52148 2.43065 1.52148 5.32262C1.52148 7.64809 2.01812 8.55165 2.82475 8.86605C2.97342 8.92837 3.13475 8.96519 3.3024 8.98785ZM2.55587 3.68827C3.04618 4.29726 4.31781 4.16696 5.41546 3.39653C5.69383 3.20109 5.9374 2.97732 6.13353 2.75072C6.15883 2.75355 6.18414 2.75638 6.20944 2.76205C6.31699 2.77904 6.41506 2.81303 6.52577 2.84419C6.62386 2.88668 6.73138 2.92067 6.82628 2.97449C6.92437 3.01981 7.01291 3.08212 7.10148 3.13594C7.18057 3.19825 7.26914 3.25773 7.33557 3.32571C7.40513 3.38803 7.47159 3.45601 7.52217 3.52116C7.57911 3.58347 7.62026 3.64862 7.66135 3.70527C7.70244 3.76192 7.73724 3.8129 7.75625 3.85822C7.8037 3.94603 7.83214 3.99701 7.83214 3.99701C7.83214 3.99701 7.82265 3.9432 7.8037 3.84406C7.79737 3.79307 7.78155 3.73642 7.76258 3.66845C7.74356 3.60047 7.72142 3.52116 7.68349 3.44185C7.65186 3.3597 7.60758 3.27473 7.55696 3.18409C7.50951 3.09345 7.43992 3.00564 7.37346 2.90934C7.29438 2.82153 7.22162 2.72523 7.12673 2.64025C7.03816 2.54961 6.9306 2.47314 6.82622 2.39099C6.72816 2.32868 6.6238 2.2607 6.51309 2.20688C6.56053 2.11908 6.59846 2.02844 6.63009 1.94346C7.02234 2.10208 7.42411 2.30319 7.74356 2.58927C8.91717 3.64012 8.4553 4.86092 9.36002 4.05366C9.50237 3.9262 9.61938 3.79307 9.71115 3.65995C9.74278 3.65995 9.77441 3.65712 9.79972 3.66278C9.92308 3.6911 10.0022 3.77608 10.0465 3.84406C10.1698 4.02817 10.1983 4.29442 10.1224 4.56068C10.0085 4.95723 9.71747 5.19232 9.48339 5.21781L9.2936 5.24047L9.24301 5.40759C8.79383 6.86632 7.5823 8.41852 6.21261 8.41852C4.84291 8.41852 3.63455 6.86632 3.1822 5.40759L3.13159 5.24047L2.94179 5.21781C2.71087 5.18949 2.41669 4.95439 2.30281 4.56068C2.22689 4.29442 2.25536 4.02817 2.37873 3.84406C2.4072 3.79307 2.47046 3.72793 2.55587 3.68827Z" fill="#05BE70"/>
<path d="M9.72704 9.37012C9.3601 9.93092 8.93306 10.404 8.37 10.6645C7.20592 11.197 6.33921 11.6332 6.33921 11.6332L6.33602 11.6304V11.6219L6.32653 11.6275L6.31704 11.6219V11.6304L6.31388 11.6332C6.31388 11.6332 5.45031 11.2027 4.28306 10.6645C3.72 10.404 3.29612 9.93092 2.92602 9.37012C1.20204 9.9989 0 11.4378 0 12.6982C0 14.0239 0 15.3098 0 15.3098H6.31388H6.33918H12.6531C12.6531 15.3098 12.6531 14.0239 12.6531 12.6982C12.6531 11.4407 11.4479 9.99893 9.72704 9.37012Z" fill="#05BE70"/>
</svg>
