<svg width="22" height="16" viewBox="0 0 22 16" fill="none" xmlns="http://www.w3.org/2000/svg">
<path d="M12.9704 8.88212C13.5791 8.97247 14.3222 8.83408 15.1338 8.78609C15.2853 8.81996 15.4368 8.84258 15.594 8.84258C15.754 8.84258 15.9112 8.81996 16.0684 8.78327C18.1804 8.88494 19.8266 9.47523 19.8266 5.22744C19.8266 2.34381 17.9318 0.00244141 15.594 0.00244141C13.2562 0.00244141 11.3613 2.34381 11.3613 5.22744C11.3613 7.54621 11.81 8.44717 12.5388 8.76067C12.6731 8.82281 12.8189 8.85952 12.9704 8.88212ZM12.2959 3.59781C12.7389 4.20504 13.8878 4.07512 14.8795 3.3069C15.131 3.11202 15.3511 2.8889 15.5282 2.66296C15.5511 2.66578 15.574 2.6686 15.5968 2.67425C15.694 2.6912 15.7826 2.72509 15.8826 2.75616C15.9713 2.79852 16.0684 2.83241 16.1541 2.88608C16.2428 2.93127 16.3228 2.9934 16.4028 3.04706C16.4742 3.1092 16.5543 3.16851 16.6143 3.23629C16.6771 3.29843 16.7372 3.36621 16.7829 3.43117C16.8343 3.49331 16.8715 3.55827 16.9086 3.61475C16.9457 3.67124 16.9772 3.72208 16.9944 3.76727C17.0372 3.85482 17.0629 3.90566 17.0629 3.90566C17.0629 3.90566 17.0543 3.852 17.0372 3.75314C17.0315 3.70231 17.0172 3.64582 17.0001 3.57804C16.9829 3.51025 16.9629 3.43117 16.9286 3.35209C16.9 3.27019 16.86 3.18546 16.8143 3.09508C16.7714 3.0047 16.7086 2.91714 16.6485 2.82112C16.5771 2.73356 16.5113 2.63754 16.4256 2.55281C16.3456 2.46243 16.2484 2.38617 16.1541 2.30427C16.0655 2.24213 15.9712 2.17435 15.8712 2.12069C15.914 2.03313 15.9483 1.94275 15.9769 1.85802C16.3313 2.01618 16.6943 2.21671 16.9829 2.50197C18.0432 3.54979 17.6259 4.76708 18.4433 3.96214C18.572 3.83505 18.6777 3.70231 18.7606 3.56956C18.7892 3.56956 18.8177 3.56674 18.8406 3.57239C18.9521 3.60063 19.0235 3.68536 19.0635 3.75314C19.175 3.93673 19.2007 4.20221 19.1321 4.4677C19.0292 4.8631 18.7663 5.09752 18.5548 5.12294L18.3833 5.14554L18.3376 5.31217C17.9318 6.7667 16.8372 8.31443 15.5997 8.31443C14.3622 8.31443 13.2705 6.7667 12.8618 5.31217L12.816 5.14554L12.6446 5.12294C12.4359 5.0947 12.1701 4.86028 12.0672 4.4677C11.9987 4.20221 12.0244 3.93673 12.1358 3.75314C12.1616 3.70231 12.2187 3.63735 12.2959 3.59781Z" fill="#FF3E9D"/>
<path d="M18.7751 9.26367C18.4435 9.82286 18.0577 10.2945 17.549 10.5544C16.4973 11.0853 15.7142 11.5203 15.7142 11.5203L15.7113 11.5174V11.5089L15.7028 11.5146L15.6942 11.5089V11.5174L15.6913 11.5203C15.6913 11.5203 14.9111 11.091 13.8565 10.5544C13.3478 10.2945 12.9648 9.82286 12.6304 9.26367C11.0728 9.89064 9.98682 11.3254 9.98682 12.5822C9.98682 13.904 9.98682 15.1862 9.98682 15.1862H15.6913H15.7142H21.4187C21.4187 15.1862 21.4187 13.904 21.4187 12.5822C21.4187 11.3282 20.3298 9.89067 18.7751 9.26367Z" fill="#FF3E9D"/>
<path d="M2.60391 6.58008C3.05035 8.19584 4.19762 9.87463 5.74461 9.87463C7.2916 9.87463 8.44146 8.19584 8.88531 6.58008C9.26687 6.43397 9.58613 6.01284 9.71074 5.46853C9.88206 4.72081 9.63025 4.02752 9.1423 3.81839C9.18643 3.62071 9.20979 3.41731 9.20979 3.20818C9.20974 1.43485 7.60826 0.00244141 5.63297 0.00244141C3.6577 0.00244141 2.05101 1.43772 2.05101 3.20818C2.05101 3.46028 2.08735 3.70666 2.14705 3.94158C1.79404 4.23665 1.63312 4.83254 1.77847 5.47139C1.90309 6.01284 2.22232 6.43397 2.60391 6.58008ZM2.36508 4.52027C2.41699 4.42573 2.48448 4.3627 2.57014 4.33692C2.58571 4.33406 2.60647 4.33119 2.62464 4.33119C2.64022 4.33119 2.6532 4.33119 2.66877 4.33406L2.91535 4.35984L2.95169 4.09055C3.02697 3.52904 3.1853 3.02483 3.40852 2.59511C3.82642 3.11364 4.65702 3.46601 5.6148 3.46601C6.69718 3.46601 7.61862 3.01624 7.95865 2.38598C8.24417 2.85867 8.44662 3.4345 8.53485 4.09055L8.57119 4.35984L8.81777 4.33406C8.85411 4.33119 8.88785 4.33119 8.91641 4.33692C8.93458 4.33979 8.94498 4.35411 8.96313 4.35984C9.18638 4.4687 9.30056 4.90129 9.20455 5.33102C9.10589 5.76933 8.84632 6.02717 8.6413 6.05582L8.46996 6.0816L8.42324 6.26495C8.04949 7.77185 7.01125 9.30166 5.73936 9.30166C4.46751 9.30166 3.42926 7.77471 3.06068 6.26495L3.01396 6.0816L2.84265 6.05582C2.6376 6.02717 2.37803 5.7636 2.2794 5.33102C2.21456 5.02161 2.2535 4.70935 2.36508 4.52027Z" fill="#FF8079"/>
<path d="M8.79397 8.57959C8.46173 9.20412 8.07757 9.73412 7.56624 10.0177C6.51501 10.6107 5.73373 11.092 5.73373 11.092L5.73113 11.0892V11.0748L5.71815 11.0806L5.70518 11.0748V11.0892L5.70258 11.092C5.70258 11.092 4.9213 10.6136 3.87007 10.0177C3.36133 9.72836 2.97718 9.20123 2.64234 8.57959C1.08759 9.27574 0 10.8829 0 12.281C0 13.7563 0 15.1859 0 15.1859H5.70258H5.72335H11.4311C11.4311 15.1859 11.4311 13.7563 11.4311 12.281C11.4363 10.8829 10.3488 9.27861 8.79397 8.57959Z" fill="#FF8079"/>
</svg>
