<svg width="30" height="24" viewBox="0 0 30 24" fill="none" xmlns="http://www.w3.org/2000/svg">
<path d="M24.9954 7.80336C23.6089 2.27986 18.0073 -1.07379 12.4838 0.312736C8.16732 1.39631 5.03307 5.12697 4.71014 9.56561C1.64526 10.071 -0.429613 12.9653 0.0758197 16.0302C0.525126 18.7549 2.88608 20.7503 5.64753 20.7394H10.3345V18.8646H5.64753C3.57671 18.8646 1.89794 17.1858 1.89794 15.115C1.89794 13.0442 3.57671 11.3654 5.64753 11.3654C6.16527 11.3654 6.58493 10.9458 6.58493 10.428C6.58024 5.76862 10.3537 1.98763 15.0131 1.983C19.0465 1.97896 22.5185 4.83041 23.2987 8.78757C23.3758 9.18268 23.6964 9.48452 24.0955 9.53749C26.6582 9.90243 28.4398 12.2757 28.0749 14.8384C27.7473 17.1396 25.7825 18.853 23.4581 18.8646H19.7085V20.7394H23.4581C27.0821 20.7284 30.011 17.7817 29.9999 14.1577C29.9908 11.1411 27.926 8.51924 24.9954 7.80336Z" fill="black"/>
<path d="M14.356 11.6374L10.6064 15.3869L11.9282 16.7087L14.0842 14.562V23.5517H15.959V14.562L18.1056 16.7087L19.4274 15.3869L15.6778 11.6374C15.3121 11.2739 14.7217 11.2739 14.356 11.6374Z" fill="black"/>
</svg>
