<?xml version="1.0" encoding="utf-8"?>
<!-- Generator: Adobe Illustrator 25.2.1, SVG Export Plug-In . SVG Version: 6.00 Build 0)  -->
<svg version="1.1" id="Layer_1" xmlns="http://www.w3.org/2000/svg" xmlns:xlink="http://www.w3.org/1999/xlink" x="0px" y="0px"
	 viewBox="0 0 22 17" style="enable-background:new 0 0 22 17;" xml:space="preserve">
<style type="text/css">
	.st0{fill:#FFFFFF;}
</style>
<path class="st0" d="M21.8,1.5c-0.1-0.1-0.3-0.1-0.5,0l-5,3.2V2.7c0-1.5-1-2.7-2.3-2.7H2.3C1,0,0,1.2,0,2.7v10.8
	c0,1.5,1,2.7,2.3,2.7h11.6c1.3,0,2.3-1.2,2.3-2.7v-1.9l5,3.2c0.1,0.1,0.3,0.1,0.5,0c0.1-0.1,0.2-0.3,0.2-0.5V1.9
	C22,1.7,21.9,1.6,21.8,1.5z M15.3,13.6c0,0.9-0.6,1.6-1.4,1.6H2.3c-0.8,0-1.4-0.7-1.4-1.6V2.7c0-0.9,0.6-1.6,1.4-1.6h11.6
	c0.8,0,1.4,0.7,1.4,1.6L15.3,13.6z M21.1,13.5l-4.8-3.1V5.9l4.8-3.1V13.5z"/>
</svg>
