<svg width="12" height="8" viewBox="0 0 12 8" fill="none" xmlns="http://www.w3.org/2000/svg">
<path d="M6 0.5C3.70727 0.5 1.62811 1.75437 0.0938938 3.79181C-0.0312979 3.95873 -0.0312979 4.19193 0.0938938 4.35885C1.62811 6.39874 3.70727 7.65311 6 7.65311C8.29273 7.65311 10.3719 6.39874 11.9061 4.36131C12.0313 4.19438 12.0313 3.96118 11.9061 3.79426C10.3719 1.75437 8.29273 0.5 6 0.5ZM6.16447 6.59512C4.64253 6.69086 3.3857 5.43648 3.48144 3.91209C3.55999 2.65526 4.57871 1.63654 5.83553 1.55799C7.35747 1.46226 8.6143 2.71663 8.51856 4.24102C8.43756 5.4954 7.41884 6.51411 6.16447 6.59512ZM6.08837 5.43157C5.26849 5.48312 4.59098 4.80807 4.64498 3.98819C4.68671 3.31068 5.23658 2.76327 5.91408 2.71909C6.73397 2.66754 7.41148 3.34259 7.35747 4.16247C7.31329 4.84244 6.76342 5.38984 6.08837 5.43157Z" fill="#818183"/>
</svg>
