<svg width="40" height="36" viewBox="0 0 40 36" fill="none" xmlns="http://www.w3.org/2000/svg">
<path d="M36.0312 8H6.25C5.55937 8 5 7.44063 5 6.75C5 6.05937 5.55937 5.5 6.25 5.5H36.25C36.9406 5.5 37.5 4.94063 37.5 4.25C37.5 2.17891 35.8211 0.5 33.75 0.5H5C2.23828 0.5 0 2.73828 0 5.5V30.5C0 33.2617 2.23828 35.5 5 35.5H36.0312C38.2203 35.5 40 33.818 40 31.75V11.75C40 9.68203 38.2203 8 36.0312 8ZM32.5 24.25C31.1195 24.25 30 23.1305 30 21.75C30 20.3695 31.1195 19.25 32.5 19.25C33.8805 19.25 35 20.3695 35 21.75C35 23.1305 33.8805 24.25 32.5 24.25Z" fill="#12EB90"/>
</svg>
