<svg width="30" height="27" viewBox="0 0 30 27" fill="none" xmlns="http://www.w3.org/2000/svg">
<path d="M29.7137 23.3728L16.829 1.05598C16.4473 0.394746 15.7635 0 15 0C14.2365 0 13.5527 0.394746 13.171 1.05598L0.286348 23.3728C-0.0954492 24.034 -0.0954492 24.8236 0.286348 25.4848C0.668086 26.146 1.35182 26.5407 2.11535 26.5407H27.8846C28.6482 26.5407 29.3319 26.146 29.7137 25.4848C30.0954 24.8236 30.0954 24.034 29.7137 23.3728ZM28.1895 24.6048C28.1516 24.6705 28.0614 24.7808 27.8847 24.7808H2.11535C1.93852 24.7808 1.8484 24.6706 1.81055 24.6048C1.77264 24.5391 1.72213 24.4059 1.81055 24.2528L14.6951 1.93594C14.7836 1.78283 14.9241 1.75992 14.9999 1.75992C15.0759 1.75992 15.2164 1.78277 15.3047 1.93594L28.1895 24.2528C28.2779 24.4059 28.2274 24.5391 28.1895 24.6048Z" fill="black"/>
<path d="M15.8803 8.00244H14.1204V17.389H15.8803V8.00244Z" fill="black"/>
<path d="M15.0002 21.4957C15.6483 21.4957 16.1736 20.9704 16.1736 20.3224C16.1736 19.6744 15.6483 19.149 15.0002 19.149C14.3522 19.149 13.8269 19.6744 13.8269 20.3224C13.8269 20.9704 14.3522 21.4957 15.0002 21.4957Z" fill="black"/>
</svg>
